<svg width="36" height="36" fill="none" xmlns="http://www.w3.org/2000/svg"><path d="M28.962 10.252a7.051 7.051 0 00-3.319.833l-4.122-4.971c.356-.613.55-1.315.55-2.043A4.076 4.076 0 0018 0a4.076 4.076 0 00-4.071 4.071 4.09 4.09 0 001.418 3.085l-3.604 9.653a9.705 9.705 0 00-2.04-.215C4.353 16.594 0 20.946 0 26.297 0 31.647 4.353 36 9.703 36s9.703-4.353 9.703-9.703c0-.96-.138-1.894-.409-2.794l4.315-2.019a7.072 7.072 0 005.65 2.844A7.046 7.046 0 0036 17.29a7.046 7.046 0 00-7.038-7.038zM18 2.812a1.26 1.26 0 010 2.518 1.259 1.259 0 010-2.518zM9.703 33.188c-3.8 0-6.89-3.09-6.89-6.89s3.09-6.89 6.89-6.89a6.885 6.885 0 016.243 3.97c.046.135.648 1.236.648 2.92 0 3.8-3.092 6.89-6.89 6.89zm12.22-15.897c0 .562.066 1.113.195 1.648l-4.316 2.018a9.832 9.832 0 00-3.425-3.161l3.604-9.653H18c.464 0 .923-.08 1.356-.233l4.121 4.97a7.016 7.016 0 00-1.553 4.41zm7.039 4.226a4.246 4.246 0 01-3.829-2.435v-.002a4.225 4.225 0 118.055-1.79 4.23 4.23 0 01-4.226 4.227z" fill="#fff"/></svg>