<svg width="36" height="36" fill="none" xmlns="http://www.w3.org/2000/svg"><g clip-path="url(#clip0)" fill="#fff"><path d="M11.61 22.672a2.677 2.677 0 000-3.781 2.657 2.657 0 00-1.89-.783c-.413 0-.811.093-1.171.27a10.704 10.704 0 01-1.939-6.18c0-5.722 4.47-10.462 10.177-10.792a.704.704 0 00-.08-1.405C10.255.374 5.202 5.731 5.202 12.2c0 2.58.789 5.03 2.284 7.112a2.678 2.678 0 00.342 3.36 2.657 2.657 0 001.89.784c.715 0 1.386-.278 1.891-.783zm-2.786-2.786c.247-.247.572-.37.896-.37a1.268 1.268 0 11-.896 2.161 1.268 1.268 0 010-1.791z"/><path d="M28.268 24.375a2.5 2.5 0 00-1.225.319 2.521 2.521 0 00-2.401-1.761 2.51 2.51 0 00-1.813.773 2.555 2.555 0 00-.422-.352 12.216 12.216 0 007.232-11.156c0-2.578-.789-5.03-2.283-7.112a2.678 2.678 0 00-.343-3.36 2.677 2.677 0 00-3.781 0 2.677 2.677 0 000 3.78 2.677 2.677 0 003.06.513 10.709 10.709 0 011.94 6.18c0 5.089-3.455 9.39-8.326 10.524v-3.787a7.213 7.213 0 004.696-6.738c0-3.959-3.222-7.18-7.181-7.18-3.96 0-7.18 3.22-7.18 7.18 0 1.563.493 3.049 1.426 4.297a7.255 7.255 0 003.204 2.416V29.26l-.883-1.45a2.591 2.591 0 00-3.53-.901 2.619 2.619 0 00-1.04 3.397l2.624 5.302a.704.704 0 101.261-.624l-2.622-5.296a1.205 1.205 0 01.481-1.56 1.207 1.207 0 011.624.414l2.188 3.59a.704.704 0 001.305-.366V15.624a1.111 1.111 0 012.22 0v13.361a.703.703 0 101.407 0V25.45a1.11 1.11 0 012.219 0v3.791a.704.704 0 101.407 0V25.45a1.111 1.111 0 012.22 0v3.839a.704.704 0 101.407 0v-2.397a1.111 1.111 0 012.22 0v8.404a.703.703 0 101.406 0v-8.404a2.52 2.52 0 00-2.517-2.517zM24.227 4.51a1.268 1.268 0 01.895-2.161c.325 0 .65.123.896.37a1.268 1.268 0 010 1.791 1.268 1.268 0 01-1.791 0zm-12.58 7.687a5.78 5.78 0 015.774-5.773 5.78 5.78 0 015.774 5.773 5.803 5.803 0 01-3.29 5.213v-1.787a2.5 2.5 0 00-.254-1.103c.624-.601.992-1.44.992-2.323a3.226 3.226 0 00-3.222-3.222 3.226 3.226 0 00-3.222 3.222c0 .858.349 1.681.949 2.282a2.501 2.501 0 00-.277 1.144v1.757a5.744 5.744 0 01-3.223-5.183zm4.465 1.258a1.817 1.817 0 011.309-3.073 1.817 1.817 0 011.285 3.097 2.5 2.5 0 00-1.317-.373 2.5 2.5 0 00-1.277.349zm3.8-11.797a.708.708 0 00.704-.704.709.709 0 00-.206-.497.709.709 0 00-.498-.206.708.708 0 00-.497.206.709.709 0 00-.206.497.708.708 0 00.703.704z"/></g><defs><clipPath id="clip0"><path fill="#fff" d="M0 0h36v36H0z"/></clipPath></defs></svg>