<svg width="36" height="36" fill="none" xmlns="http://www.w3.org/2000/svg"><path d="M24.847 3.812V1.694h-2.541v2.118h-8.612V1.694h-2.541v2.118H0v30.494h36V3.812H24.847zM11.153 6.353v2.118h2.541V6.353h8.612v1.694h2.541V6.353h8.612v4.236H2.54V6.353h8.612zM2.541 31.765V13.13H33.46v18.635H2.54z" fill="#fff"/><path d="M12.497 24.142H8.262v4.235h4.235v-4.235zm7.621 0h-4.235v4.235h4.235v-4.235zm7.619 0h-4.235v4.235h4.235v-4.235zm-7.619-7.624h-4.235v4.235h4.235v-4.235zm7.619 0h-4.235v4.235h4.235v-4.235zm-15.24 0H8.262v4.235h4.235v-4.235z" fill="#fff"/></svg>