<svg width="291" height="520" fill="none" xmlns="http://www.w3.org/2000/svg"><path d="M7.13 478.09c2.865 9.02 8.024 11.584 13.183 13.736 8.506 3.525 17.724 5.838 26.712 4.373 12.404-2.015 24.166-4.098 35.584 3.64 2.775 1.877 7.406 1.465 11.144 1.305 4.104-.207 9.492-.779 10.317-5.289.688-3.915-4.746-3.983-7.635-5.449-6.718-3.456-12.335-7.119-5.709-15.499 2.11-2.678 4.884-6.021 2.04-9.157-2.843-3.136-7.13-1.145-10.5.618-9.172 4.739-17.954 9.844-28.088 12.34-14.903 3.731-29.807 5.151-47.049-.618z" fill="#000" fill-opacity=".03"/><path d="M73.304 512.476c6.718 4.098 12.977 4.739 19.374 5.724 51.956 8.127 93.754-12.752 129.224-47.459 40.217-39.354 60.096-89.285 67.089-144.412 4.288-33.288 2.339-66.163-11.992-97.252-27.651-59.982-98.592-89.583-160.819-67.147a460.904 460.904 0 00-60.463 27.289 83.567 83.567 0 01-55.349 9.157 42.445 42.445 0 00-6.878-.458c-.573 0-1.146.71-2.729 1.74 4.586 6.868 11.465 8.013 18.48 9.158 24.511 4.121 47.967 0 70.437-9.913 34.392-15.11 69.381-14.446 104.003-2.976 36.181 12.019 55.028 40.544 61.287 76.304 8.094 45.787-2.292 90.018-22.125 130.768-15.683 32.051-37.076 61.561-66.791 83.035-20.796 15.041-44.229 23.878-70.436 23.855-3.691-.068-7.635-.572-12.312 2.587z" fill="#000" fill-opacity=".03"/><path d="M-18.554 126.4c11.052-13.096 13.757 1.717 20.636 7.074 1.995-6.594-.894-11.104-3.096-15.591-9.698-19.734-26.07-32.326-45.169-42.124a748.951 748.951 0 00-77.841-33.47c-21.53-8.128-43.037-16.3-53.951-39.263-2.912-6.135-5.136-1.51-6.878 1.374-19.581 33.356-15.385 72.733 9.905 102.105 23.226 26.877 52.529 42.307 86.83 49.45 1.831.222 3.6.806 5.204 1.717-13.046 2.29-26.253 1.603-39.116 4.968-44.481 11.607-72.981 44.024-77.681 89.514-6.695 65.018 12.863 122.069 54.593 171.427 33.154 39.217 73.21 69.024 124.271 81.341 20.453 4.945 41.271 7.028 62.389 1.671-14.308-3.319-28.661-6.524-42.945-9.959-56.771-13.598-103.178-43.497-137.387-90.658-32.742-45.329-43.564-95.008-23.892-149.06 5.618-15.362 15.683-27.793 28.111-38.301 33.292-28.205 71.445-43.246 115.444-42.582 4.7 0 9.882 1.648 15.202-3.366-18.343-7.669-37.511-8.058-59.11-13.163 13.367-4.304 24.51 0 35.952-4.831-10.478-3.8-20.452-3.48-29.968-5.265-47.163-8.883-89.122-26.717-117.347-68.086-9.745-14.285-13.757-29.762-7.016-46.497 1.101-2.793 1.857-6.433 5.778-5.906 3.485.48 4.15 3.571 4.815 6.868 3.049 14.972 13.757 23.237 26.253 29.761-3.944-11.652-14.537-18.063-20.796-27.838-.459-.481-1.422-1.26-1.33-1.397.848-1.35 1.765-.664 2.637.115 19.42 7.646 35.08 20.833 50.236 36.767 2.293-6.365-2.843-8.013-2.293-11.699.94-.206 2.132-.916 2.935-.618 26.94 10.096 53.859 20.33 78.805 35.28 11.143 6.638 13.963 16.551 13.757 28.318l-.252-.274c2.292-.55 2.522.847 2.544 2.518l-.229-.32zm.184-16.026a3.257 3.257 0 01-.963-.366c-.138 0 0-.481 0-.733l.825 1.305c1.146 0 2.293-.137 1.124 1.534l-.986-1.74zm35.504 74.267c4.723-7.944 4.586-16.438 5.847-24.588 2.453-17.308 4.448-34.73 10.134-51.35 5.41-15.843 10.226-17.697 25.22-10.806 2.293 1.03 4.334 1.763 6.306 0a5.468 5.468 0 00.825-6.319C61.34 81.138 55.86 71.523 45.68 65.892c-9.308-5.128-17.723-3-24.533 4.99-5.846 6.868-8.322 15.293-9.56 24.062a297.796 297.796 0 00.527 78.479c.436 3.48.458 7.44 5.021 11.218z" fill="#000" fill-opacity=".03"/></svg>