<svg width="186" height="520" fill="none" xmlns="http://www.w3.org/2000/svg"><path d="M182.447 126.4c11.051-13.096 13.757 1.717 20.635 7.074 1.995-6.594-.894-11.104-3.095-15.591-9.699-19.734-26.07-32.326-45.169-42.124a748.9 748.9 0 00-77.842-33.47c-21.53-8.128-43.036-16.3-53.95-39.263-2.912-6.135-5.136-1.51-6.879 1.374C-3.433 37.756.762 77.133 26.052 106.505c23.227 26.877 52.53 42.307 86.83 49.45 1.832.222 3.601.806 5.205 1.717-13.047 2.29-26.253 1.603-39.116 4.968C34.49 174.247 5.99 206.664 1.29 252.154c-6.695 65.018 12.862 122.069 54.592 171.427 33.155 39.217 73.21 69.024 124.272 81.341 20.452 4.945 41.271 7.028 62.388 1.671-14.307-3.319-28.66-6.524-42.945-9.959-56.771-13.598-103.178-43.497-137.387-90.658-32.741-45.329-43.564-95.008-23.891-149.06 5.617-15.362 15.683-27.793 28.11-38.301 33.292-28.205 71.445-43.246 115.445-42.582 4.7 0 9.882 1.648 15.201-3.366-18.343-7.669-37.511-8.058-59.109-13.163 13.367-4.304 24.51 0 35.951-4.831-10.478-3.8-20.452-3.48-29.967-5.265-47.164-8.883-89.123-26.717-117.347-68.086-9.745-14.285-13.758-29.762-7.017-46.497 1.101-2.793 1.858-6.433 5.778-5.906 3.485.48 4.15 3.571 4.815 6.868 3.05 14.972 13.757 23.237 26.253 29.761C52.49 53.896 41.896 47.485 35.636 37.71c-.458-.481-1.421-1.26-1.33-1.397.849-1.35 1.766-.664 2.637.115 19.42 7.646 35.08 20.833 50.236 36.767 2.293-6.365-2.843-8.013-2.293-11.699.94-.206 2.133-.916 2.935-.618 26.941 10.096 53.859 20.33 78.805 35.28 11.143 6.638 13.964 16.551 13.757 28.318l-.252-.274c2.293-.55 2.522.847 2.545 2.518l-.229-.32zm.183-16.026a3.26 3.26 0 01-.963-.366c-.137 0 0-.481 0-.733l.826 1.305c1.146 0 2.292-.137 1.123 1.534l-.986-1.74z" fill="#000" fill-opacity=".03"/><path d="M180.415 124.407a215.42 215.42 0 00-80.501-46.108c-8.094-2.518-16.05-6.41-25.818-2.495 44.16 18.063 84.996 41.804 119.824 74.999-.55-10.966-8.644-16.208-11.579-24.404l.252.252c-1.742 0-2.476-.893-2.545-2.519l.367.275zm-84.493 3.183c19.718 8.699 39.735 11.171 60.003 1.969l-60.003-1.969zm16.348-26.855c-18.595-8.63-36.685-5.7-53.835-.824 18.709 6.57 40.949 7.211 53.835.824zM29.911 65.618c10.134 11.72 23.914 13.735 38.313 14.238-10.822-9.935-25.152-10.553-38.313-14.238zm152.127 41.093c3.141 7.073 3.76 2.61 3.76 2.61l.848 5.494-2.407.595-2.889-3.8-1.353-1.809 2.041-3.09z" fill="#000" fill-opacity=".03"/><path d="M183.077 127.911s-.711-2.564-.229-2.45c.481.115-1.284-1.739-1.284-1.739-.66.245-1.344.421-2.041.526-1.008.138.184 2.633.184 2.633" fill="#000" fill-opacity=".03"/></svg>