<svg width="309" height="327" fill="none" xmlns="http://www.w3.org/2000/svg"><path d="M130.715 300.264c1.8 5.665 5.04 7.276 8.28 8.627 5.343 2.215 11.131 3.667 16.776 2.747 7.791-1.266 15.178-2.574 22.349 2.286 1.743 1.179 4.652.92 6.999.819 2.577-.129 5.961-.489 6.48-3.321.432-2.459-2.981-2.502-4.795-3.422-4.22-2.171-7.748-4.472-3.586-9.734 1.325-1.682 3.067-3.782 1.282-5.751-1.786-1.97-4.479-.719-6.596.388-5.76 2.976-11.275 6.182-17.64 7.75-9.36 2.343-18.72 3.235-29.549-.389z" fill="#000" fill-opacity=".03"/><path d="M172.276 321.86c4.219 2.574 8.151 2.976 12.168 3.595 32.631 5.104 58.882-8.009 81.159-29.807 25.258-24.716 37.743-56.075 42.135-90.698 2.693-20.906 1.469-41.553-7.531-61.079C282.84 106.2 238.286 87.609 199.204 101.7a289.515 289.515 0 00-37.973 17.139 52.482 52.482 0 01-34.762 5.751 26.685 26.685 0 00-4.32-.288c-.36 0-.72.446-1.713 1.093 2.88 4.314 7.2 5.033 11.606 5.752 15.394 2.588 30.125 0 44.237-6.226 21.6-9.49 43.575-9.073 65.319-1.869 22.724 7.548 34.561 25.464 38.492 47.922 5.083 28.757-1.44 56.536-13.896 82.129-9.85 20.13-23.285 38.663-41.948 52.15-13.061 9.447-27.778 14.997-44.237 14.982-2.319-.043-4.795-.359-7.733 1.625z" fill="#000" fill-opacity=".03"/><path d="M114.585 79.385c6.941-8.224 8.64 1.078 12.96 4.443 1.253-4.141-.561-6.974-1.944-9.792-6.091-12.394-16.373-20.302-28.368-26.456a470.35 470.35 0 00-48.888-21.02C34.823 21.454 21.315 16.321 14.46 1.9c-1.829-3.853-3.226-.948-4.32.863-12.297 20.95-9.66 45.68 6.222 64.127 14.587 16.88 32.99 26.571 54.533 31.058a8.75 8.75 0 013.27 1.078c-8.195 1.438-16.489 1.006-24.568 3.12-27.936 7.29-45.835 27.649-48.787 56.219-4.205 40.834 8.078 76.665 34.287 107.665 20.822 24.63 45.98 43.35 78.048 51.086 12.845 3.105 25.921 4.414 39.183 1.049-8.986-2.085-18-4.098-26.971-6.254-35.655-8.541-64.801-27.319-86.286-56.938-20.563-28.469-27.36-59.67-15.005-93.617 3.528-9.648 9.85-17.456 17.655-24.055 20.909-17.714 44.87-27.161 72.504-26.744 2.952 0 6.207 1.035 9.548-2.113-11.52-4.817-23.559-5.062-37.124-8.268 8.395-2.703 15.394 0 22.58-3.034-6.581-2.386-12.845-2.185-18.822-3.307-29.62-5.578-55.973-16.78-73.7-42.76-6.12-8.973-8.64-18.693-4.406-29.203.691-1.754 1.167-4.04 3.629-3.71 2.189.302 2.606 2.243 3.024 4.314 1.915 9.403 8.64 14.594 16.488 18.692-2.477-7.319-9.13-11.345-13.06-17.484-.289-.302-.894-.791-.836-.878.533-.848 1.109-.416 1.656.072C35.4 27.681 45.234 35.963 54.752 45.97c1.44-3.997-1.785-5.032-1.44-7.347.591-.13 1.34-.575 1.844-.389 16.92 6.341 33.826 12.768 49.493 22.157 6.999 4.17 8.77 10.396 8.64 17.786l-.158-.172c1.44-.345 1.584.532 1.598 1.581l-.144-.2zm.116-10.065a2.03 2.03 0 01-.605-.23c-.087 0 0-.302 0-.46l.518.82c.72 0 1.44-.087.706.963l-.619-1.093zm22.298 46.643c2.966-4.99 2.88-10.324 3.672-15.443 1.541-10.87 2.793-21.811 6.365-32.25 3.398-9.95 6.422-11.115 15.839-6.787 1.44.647 2.722 1.107 3.96 0a3.433 3.433 0 00.519-3.968c-2.592-6.557-6.034-12.596-12.427-16.133-5.847-3.22-11.131-1.883-15.408 3.135-3.672 4.313-5.227 9.605-6.005 15.111a187.063 187.063 0 00.331 49.289c.274 2.186.288 4.673 3.154 7.046z" fill="#000" fill-opacity=".03"/><path d="M113.309 78.135A135.293 135.293 0 0062.75 49.177c-5.083-1.582-10.08-4.026-16.214-1.568C74.27 58.954 99.917 73.864 121.79 94.713c-.346-6.887-5.429-10.18-7.272-15.328l.158.159c-1.094 0-1.555-.561-1.598-1.582l.23.172zm-53.065 1.998c12.384 5.463 24.955 7.016 37.685 1.236zM70.51 63.266c-11.678-5.42-23.039-3.58-33.81-.517 11.75 4.126 25.718 4.529 33.81.517zM18.785 41.21c6.365 7.362 15.02 8.627 24.063 8.944-6.797-6.24-15.797-6.628-24.063-8.943zm95.544 25.81c1.973 4.443 2.361 1.64 2.361 1.64l.533 3.45-1.512.374-1.814-2.387-.85-1.136 1.282-1.94z" fill="#000" fill-opacity=".03"/><path d="M114.981 80.334s-.446-1.61-.144-1.538c.303.072-.806-1.093-.806-1.093a6.462 6.462 0 01-1.282.33c-.633.087.116 1.654.116 1.654" fill="#000" fill-opacity=".03"/></svg>