<svg width="391" height="544" fill="none" xmlns="http://www.w3.org/2000/svg"><path d="M151.314 549.952c-3.291 10.36-9.215 13.305-15.138 15.777-9.768 4.049-20.352 6.705-30.673 5.022-14.244-2.314-27.75-4.707-40.862 4.181-3.186 2.156-8.504 1.683-12.796 1.499-4.713-.237-10.9-.895-11.848-6.074-.79-4.497 5.45-4.576 8.768-6.258 7.714-3.971 14.164-8.178 6.556-17.802-2.423-3.076-5.608-6.915-2.344-10.517 3.265-3.603 8.188-1.315 12.059.71 10.531 5.442 20.615 11.306 32.252 14.172 17.114 4.286 34.227 5.916 54.026-.71z" fill="#000" fill-opacity=".03"/><path d="M75.326 589.445c-7.714 4.707-14.902 5.443-22.248 6.574-59.66 9.335-107.657-14.646-148.387-54.508-46.181-45.2-69.008-102.548-77.038-165.865-4.923-38.232-2.685-75.99 13.77-111.698 31.752-68.891 113.213-102.889 184.669-77.121A529.242 529.242 0 0195.52 218.17a95.945 95.945 0 0063.557 10.517 48.664 48.664 0 017.899-.525c.658 0 1.316.815 3.133 1.998-5.266 7.888-13.164 9.203-21.221 10.518-28.145 4.733-55.08 0-80.881-11.386-39.493-17.354-79.67-16.591-119.427-3.418-41.546 13.804-63.188 46.567-70.376 87.639-9.294 52.589 2.633 103.389 25.407 150.193 18.009 36.812 42.573 70.705 76.695 95.37 23.88 17.275 50.788 27.424 80.882 27.398 4.239-.079 8.767-.657 14.138 2.971z" fill="#000" fill-opacity=".03"/><path d="M180.805 146.019c-12.69-15.04-15.797 1.972-23.695 8.125-2.291-7.572 1.026-12.752 3.554-17.906 11.137-22.666 29.936-37.128 51.867-48.382a859.842 859.842 0 0189.386-38.442c24.722-9.334 49.418-18.722 61.951-45.095 3.344-7.047 5.897-1.735 7.898 1.578 22.485 38.31 17.667 83.537-11.374 117.273-26.67 30.869-60.318 48.591-99.706 56.795a15.998 15.998 0 00-5.976 1.972c14.981 2.63 30.146 1.841 44.916 5.706 51.078 13.331 83.804 50.564 89.201 102.811 7.688 74.676-14.77 140.201-62.688 196.892-38.071 45.042-84.067 79.277-142.701 93.424-23.485 5.679-47.391 8.072-71.64 1.919 16.429-3.813 32.911-7.494 49.314-11.438 65.189-15.619 118.478-49.959 157.76-104.125 37.598-52.063 50.025-109.122 27.435-171.203-6.451-17.643-18.009-31.921-32.279-43.99-38.229-32.395-82.04-49.67-132.564-48.908-5.398 0-11.348 1.894-17.456-3.865 21.063-8.808 43.073-9.255 67.875-15.119-15.35-4.943-28.145 0-41.283-5.548 12.032-4.365 23.485-3.997 34.411-6.048 54.158-10.202 102.339-30.685 134.75-78.2 11.189-16.407 15.797-34.182 8.056-53.403-1.264-3.208-2.132-7.389-6.635-6.784-4.002.552-4.765 4.102-5.529 7.889-3.501 17.196-15.797 26.688-30.146 34.182 4.529-13.384 16.692-20.746 23.88-31.974.527-.552 1.633-1.446 1.527-1.604-.974-1.551-2.027-.762-3.028.132-22.3 8.782-40.282 23.928-57.685 42.228-2.633-7.31 3.264-9.203 2.632-13.436-1.079-.237-2.448-1.052-3.37-.71-30.936 11.596-61.845 23.35-90.491 40.52-12.796 7.625-16.034 19.01-15.797 32.526l.29-.316c-2.633-.631-2.897.973-2.923 2.892l.263-.368zm-.21-18.406c.388-.08.762-.222 1.106-.42.157 0 0-.553 0-.842l-.948 1.499c-1.317 0-2.633-.158-1.29 1.762l1.132-1.999zm-40.77 85.298c-5.423-9.125-5.265-18.88-6.713-28.24-2.818-19.879-5.108-39.889-11.637-58.979-6.214-18.195-11.743-20.325-28.961-12.411-2.633 1.184-4.976 2.025-7.24 0a6.28 6.28 0 01-.948-7.257c4.739-11.99 11.031-23.034 22.721-29.502 10.689-5.89 20.351-3.445 28.171 5.732 6.714 7.888 9.557 17.565 10.979 27.635a342.113 342.113 0 01-.606 90.137c-.5 3.997-.526 8.546-5.766 12.885z" fill="#000" fill-opacity=".03"/><path d="M183.138 143.732a247.364 247.364 0 0192.439-52.956c9.294-2.893 18.43-7.363 29.646-2.867-50.708 20.747-97.6 48.014-137.593 86.141.632-12.595 9.926-18.617 13.296-28.03l-.289.289c2.001 0 2.843-1.025 2.922-2.892l-.421.315zm97.022 3.655c-22.642 9.991-45.627 12.831-68.901 2.261l68.901-2.261zm-18.771-30.845c21.352-9.912 42.125-6.546 61.818-.946-21.483 7.546-47.022 8.282-61.818.946zm94.572-40.334c-11.637 13.462-27.46 15.776-43.994 16.354 12.427-11.41 28.882-12.12 43.994-16.354zm-174.687 47.2c-3.607 8.124-4.317 2.997-4.317 2.997l-.975 6.31 2.765.684 3.317-4.365 1.554-2.077-2.344-3.549z" fill="#000" fill-opacity=".03"/><path d="M180.081 147.754s.816-2.944.263-2.813c-.553.132 1.474-1.998 1.474-1.998.759.281 1.544.484 2.344.605 1.158.157-.211 3.023-.211 3.023" fill="#000" fill-opacity=".03"/></svg>