<svg width="93" height="154" fill="none" xmlns="http://www.w3.org/2000/svg"><path d="M61.489 141.602c.85 2.672 2.381 3.431 3.912 4.069 2.524 1.044 5.26 1.729 7.927 1.295 3.68-.597 7.17-1.214 10.56 1.078.823.556 2.197.434 3.306.387 1.218-.062 2.817-.231 3.062-1.567.204-1.159-1.409-1.18-2.266-1.614-1.993-1.023-3.66-2.108-1.694-4.59.626-.793 1.45-1.783.605-2.712-.843-.929-2.116-.339-3.116.183-2.721 1.403-5.327 2.915-8.335 3.654-4.422 1.106-8.845 1.526-13.961-.183z" fill="#fff"/><path d="M81.128 151.786c1.993 1.214 3.851 1.403 5.75 1.695 15.417 2.407 27.82-3.777 38.346-14.056 11.934-11.656 17.833-26.445 19.908-42.773 1.273-9.859.694-19.596-3.558-28.804-8.206-17.766-29.257-26.533-47.723-19.888a136.95 136.95 0 00-17.942 8.082 24.839 24.839 0 01-16.424 2.713c-.676-.1-1.358-.146-2.041-.136-.17 0-.34.21-.81.516 1.36 2.034 3.402 2.373 5.484 2.712 7.273 1.22 14.234 0 20.901-2.936 10.206-4.476 20.589-4.279 30.863-.882 10.737 3.56 16.329 12.009 18.187 22.6 2.402 13.562-.681 26.662-6.566 38.732-4.654 9.493-11.002 18.233-19.82 24.593-6.17 4.455-13.125 7.072-20.901 7.066-1.096-.021-2.266-.17-3.654.766z" fill="#fff"/><path d="M53.87 37.437c3.279-3.878 4.081.509 6.123 2.096.592-1.953-.266-3.289-.919-4.618-2.878-5.845-7.736-9.574-13.404-12.476a222.463 222.463 0 00-23.099-9.914C16.182 10.118 9.801 7.697 6.561.896 5.698-.92 5.038.45 4.522 1.303-1.29 11.183-.046 22.845 7.46 31.545c6.892 7.96 15.587 12.53 25.766 14.646a4.139 4.139 0 011.544.509c-3.87.678-7.79.474-11.607 1.471C9.963 51.61 1.506 61.211.111 74.684c-1.986 19.257 3.817 36.154 16.2 50.773 9.839 11.616 21.725 20.444 36.878 24.092 6.069 1.465 12.247 2.082 18.513.495-4.245-.983-8.505-1.932-12.744-2.949-16.846-4.028-30.617-12.884-40.769-26.852-9.716-13.426-12.927-28.14-7.09-44.149 1.668-4.55 4.655-8.232 8.342-11.344 9.88-8.354 21.201-12.809 34.258-12.612 1.395 0 2.933.488 4.511-.997-5.443-2.271-11.131-2.387-17.54-3.899 3.966-1.274 7.273 0 10.668-1.43-3.11-1.126-6.069-1.031-8.893-1.56-13.995-2.63-26.447-7.913-34.822-20.166-2.892-4.23-4.082-8.815-2.082-13.771.327-.828.551-1.906 1.715-1.75 1.034.143 1.231 1.058 1.428 2.034.905 4.435 4.083 6.883 7.79 8.815-1.17-3.451-4.313-5.35-6.17-8.245-.136-.142-.422-.373-.395-.414.252-.4.524-.196.782.034 5.763 2.265 10.41 6.17 14.908 10.89.68-1.885-.844-2.373-.68-3.465.278-.06.632-.271.87-.183 7.995 2.99 15.983 6.021 23.385 10.45 3.307 1.965 4.144 4.901 4.083 8.387l-.075-.082c.68-.162.748.251.755.746l-.068-.095zm.053-4.746a.96.96 0 01-.285-.109c-.041 0 0-.142 0-.217l.245.387c.34 0 .68-.04.333.454l-.293-.515zM64.46 54.687c1.402-2.353 1.36-4.868 1.735-7.282.728-5.127 1.32-10.287 3.007-15.21 1.606-4.692 3.035-5.241 7.484-3.2.68.305 1.286.522 1.871 0a1.62 1.62 0 00.245-1.872c-1.224-3.091-2.85-5.94-5.871-7.607-2.763-1.52-5.26-.889-7.28 1.478-1.735 2.034-2.47 4.53-2.837 7.126a88.035 88.035 0 00.156 23.244c.13 1.031.136 2.204 1.49 3.323z" fill="#fff"/><path d="M53.265 36.848a63.955 63.955 0 00-23.889-13.656c-2.401-.746-4.762-1.899-7.66-.74 13.104 5.35 25.221 12.382 35.556 22.214-.163-3.248-2.565-4.8-3.435-7.228l.074.075c-.517 0-.735-.265-.755-.746l.109.081zm-25.067.94c5.852 2.576 11.791 3.308 17.806.583l-17.806-.583zm4.845-7.952c-5.518-2.556-10.886-1.688-15.975-.244 5.552 1.945 12.151 2.135 15.975.244zm-24.437-10.4c3.008 3.471 7.097 4.068 11.37 4.217-3.212-2.943-7.464-3.126-11.37-4.217zm45.14 12.169c.932 2.094 1.116.773 1.116.773l.251 1.626-.714.177-.857-1.126-.402-.535.606-.915z" fill="#fff"/><path d="M54.058 37.886s-.211-.759-.068-.725c.142.034-.381-.515-.381-.515a3.06 3.06 0 01-.606.156c-.3.04.055.78.055.78" fill="#fff"/></svg>