<svg width="16" height="16" fill="none" xmlns="http://www.w3.org/2000/svg"><path d="M11.043 1.694V.753h-1.13v.941H6.087V.753h-1.13v.941H0v13.553h16V1.694h-4.957zm-6.086 1.13v.94h1.13v-.94h3.827v.752h1.13v-.752h3.827v1.882H1.129V2.824h3.828zM1.129 14.118V5.835h13.742v8.283H1.129z" fill="#3896E0"/><path d="M5.554 10.73H3.672v1.882h1.882v-1.883zm3.387 0H7.06v1.882h1.88v-1.883zm3.387 0h-1.883v1.882h1.883v-1.883zM8.941 7.341H7.06v1.883h1.88V7.34zm3.387-.001h-1.883v1.883h1.883V7.341zm-6.774 0H3.672v1.883h1.882V7.341z" fill="#3896E0"/></svg>