<svg width="20" height="20" fill="none" xmlns="http://www.w3.org/2000/svg">
<path d="M17.5 8.334h.75-.75zM10 19l-.406.63.406.263.406-.262L10 19zM2.5 8.334h-.75.75zm7.5-7.5v.75-.75zm6.75 7.5c0 2.612-1.696 5.095-3.539 7a23.784 23.784 0 01-3.544 2.988 7.571 7.571 0 01-.074.048L10 19l.407.63h.002a25.26 25.26 0 003.88-3.253c1.907-1.972 3.961-4.822 3.961-8.043h-1.5zM10 19l.406-.63-.002-.002a23.777 23.777 0 01-3.615-3.035C4.946 13.43 3.25 10.946 3.25 8.334h-1.5c0 3.221 2.054 6.072 3.961 8.042a25.262 25.262 0 003.787 3.192 11.94 11.94 0 00.093.061l.002.001L10 19zM3.25 8.334a6.75 6.75 0 011.977-4.773l-1.06-1.06A8.25 8.25 0 001.75 8.333h1.5zm1.977-4.773A6.75 6.75 0 0110 1.584v-1.5A8.25 8.25 0 004.166 2.5l1.061 1.061zM10 1.584a6.75 6.75 0 014.773 1.977l1.06-1.06A8.25 8.25 0 0010 .083v1.5zm4.773 1.977a6.75 6.75 0 011.977 4.773h1.5A8.25 8.25 0 0015.834 2.5l-1.061 1.061z" fill="#fff"/><path d="M10 10.834a2.5 2.5 0 100-5 2.5 2.5 0 000 5z" stroke="#fff" stroke-width="1.5" stroke-linecap="round" stroke-linejoin="round"/>
</svg>