<svg width="231" height="63" fill="none" xmlns="http://www.w3.org/2000/svg"><g clip-path="url(#clip0)"><path d="M76.056 29.384v-.812h.775c.305 0 .505-.05.611-.144.107-.093.157-.312.157-.643v-7.824c0-.337-.057-.556-.163-.656-.106-.1-.312-.15-.606-.15h-.774v-.793h12.608v.8h-.78c-.3 0-.5.05-.607.143-.106.094-.156.319-.156.662v7.818c0 .344.05.562.156.65.1.093.306.137.606.137h.78v.812h-5.82v-.812h.769c.3 0 .5-.05.606-.144.106-.093.156-.312.156-.643v-7.824c0-.337-.05-.556-.156-.656-.106-.1-.306-.15-.606-.15h-2.504c-.306 0-.512.05-.618.15-.106.1-.163.319-.163.656v7.818c0 .33.056.55.163.643.106.094.312.144.624.144h.762v.812h-5.82v.006zm17.522-1.605c0 .33.05.55.144.643.093.1.3.144.612.144h.961v.812h-6.044v-.812h.817c.306 0 .519-.05.625-.15.106-.1.162-.312.162-.643V19.96c0-.331-.056-.55-.162-.65-.112-.1-.319-.15-.618-.15h-.818v-.799h6.731c1.374 0 2.417.269 3.129.8.712.53 1.067 1.31 1.067 2.335 0 1.08-.412 1.88-1.242 2.398-.824.518-2.104.78-3.828.78-.256 0-.512 0-.756-.006-.243 0-.505-.006-.774-.012v3.122h-.006zm0-7.662v3.66c.106.018.212.03.318.043.106.006.256.012.45.012 1.124 0 1.892-.174 2.298-.524.412-.35.618-.956.618-1.817 0-.843-.181-1.443-.543-1.799-.362-.356-.974-.53-1.836-.53-.6 0-.968.056-1.105.168-.138.113-.2.375-.2.787zm7.556 3.815c0-1.748.524-3.16 1.586-4.24 1.055-1.074 2.448-1.61 4.171-1.61 1.724 0 3.116.536 4.178 1.604 1.061 1.068 1.592 2.466 1.592 4.184 0 .855-.119 1.592-.356 2.223-.237.63-.618 1.211-1.143 1.76a5.715 5.715 0 01-1.923 1.337 6.02 6.02 0 01-2.342.45c-.861 0-1.636-.144-2.323-.431-.686-.288-1.317-.731-1.892-1.33-.537-.556-.93-1.15-1.174-1.78-.249-.625-.374-1.349-.374-2.167zm5.757-4.99c-.93 0-1.611.413-2.048 1.23-.437.819-.656 2.105-.656 3.854 0 1.598.225 2.797.675 3.59.449.793 1.124 1.187 2.029 1.187.912 0 1.586-.406 2.036-1.224.449-.812.674-2.048.674-3.703 0-1.686-.218-2.929-.662-3.728-.443-.806-1.124-1.205-2.048-1.205zm10.922 4.322h.493c.643 0 1.149-.137 1.505-.412.356-.275.606-.712.737-1.318.037-.168.087-.418.15-.743.143-.762.287-1.286.431-1.586.199-.4.468-.705.818-.905.349-.2.768-.3 1.273-.3.644 0 1.174.181 1.587.543.412.362.612.825.612 1.38 0 .369-.113.668-.344.912-.231.237-.531.356-.905.356-.388 0-.694-.094-.925-.275-.231-.18-.343-.43-.343-.743 0-.231.075-.462.231-.693.156-.231.231-.356.231-.387a.183.183 0 00-.094-.169.496.496 0 00-.256-.062.875.875 0 00-.761.393c-.188.262-.363.806-.531 1.636-.188.918-.394 1.549-.612 1.899a1.373 1.373 0 01-.899.636v.088c.793.025 1.423.2 1.885.524.463.325.787.818.968 1.48.1.369.194.862.288 1.493.131.899.362 1.349.686 1.349.244 0 .425-.12.538-.356.112-.238.174-.619.187-1.143h.762v.044c0 .918-.213 1.61-.644 2.073-.424.462-1.061.693-1.91.693-.856 0-1.468-.219-1.842-.662-.375-.443-.6-1.286-.681-2.542-.081-1.105-.262-1.78-.543-2.023-.281-.243-.806-.362-1.568-.362-.037 0-.118 0-.237.006a4.576 4.576 0 01-.287.007v3.696c0 .331.056.55.162.643.106.094.312.144.625.144h.761v.812h-5.813v-.812h.774c.306 0 .506-.05.612-.144.106-.093.156-.312.156-.643v-7.83c0-.337-.056-.556-.162-.656-.106-.1-.312-.15-.606-.15h-.774v-.793h5.813v.8h-.761c-.306 0-.512.05-.619.15-.106.1-.162.318-.162.655v3.297h-.006zm17.89-.755c-.131-1.062-.425-1.899-.862-2.51-.443-.613-.974-.919-1.605-.919-.268 0-.449.05-.543.157-.094.106-.144.312-.144.618v7.924c0 .33.05.55.157.643.106.094.312.144.618.144h.743v.812h-5.783v-.812h.769c.299 0 .499-.05.605-.144.106-.094.156-.312.156-.643V19.86c0-.312-.043-.518-.137-.625-.094-.1-.269-.15-.531-.15-.63 0-1.167.307-1.611.919-.443.611-.73 1.448-.862 2.51h-.761l.237-4.153h10.06l.243 4.153h-.749v-.006zm1.548 1.423c0-1.748.531-3.16 1.587-4.24 1.055-1.074 2.447-1.61 4.171-1.61 1.723 0 3.116.536 4.177 1.604 1.062 1.068 1.593 2.466 1.593 4.184 0 .855-.119 1.592-.356 2.223-.238.63-.618 1.211-1.143 1.76a5.715 5.715 0 01-1.923 1.337 6.02 6.02 0 01-2.342.45c-.862 0-1.636-.144-2.323-.431-.687-.288-1.317-.731-1.892-1.33-.537-.556-.93-1.15-1.174-1.78-.256-.625-.375-1.349-.375-2.167zm5.752-4.99c-.931 0-1.611.413-2.049 1.23-.437.819-.655 2.105-.655 3.854 0 1.598.225 2.797.674 3.59.45.793 1.124 1.187 2.03 1.187.911 0 1.586-.406 2.035-1.224.45-.812.675-2.048.675-3.703 0-1.686-.219-2.929-.662-3.728-.444-.806-1.124-1.205-2.048-1.205zm13.207.213c-.468 0-.793.056-.974.163-.181.106-.319.306-.4.6-.087.311-.15.986-.2 2.01a77.13 77.13 0 01-.137 2.341c-.162 2.055-.475 3.472-.931 4.234-.455.768-1.155 1.15-2.104 1.15-.643 0-1.161-.213-1.555-.631-.393-.419-.587-.98-.587-1.674 0-.587.15-1.061.45-1.436.3-.375.687-.556 1.149-.556.343 0 .631.119.862.35.231.23.349.524.349.874 0 .281-.056.506-.168.668-.113.162-.294.281-.55.356-.05.012-.125.038-.225.063-.343.087-.512.23-.512.418 0 .206.081.38.238.524a.798.798 0 00.555.219c.768 0 1.318-.674 1.668-2.023.343-1.349.518-3.553.518-6.613 0-.362-.081-.625-.244-.793-.162-.169-.424-.244-.78-.244h-.656v-.793h10.06v.8h-.781c-.299 0-.499.05-.605.143-.106.094-.156.319-.156.662v7.818c0 .344.05.562.156.65.106.093.306.137.605.137h.781v.812h-5.814v-.812h.762c.3 0 .506-.05.612-.15.106-.1.162-.312.162-.643v-8.624h-1.548zm6.712 4.777c0-1.748.525-3.16 1.586-4.24 1.056-1.074 2.448-1.61 4.172-1.61 1.723 0 3.116.536 4.177 1.604 1.062 1.068 1.593 2.466 1.593 4.184 0 .855-.119 1.592-.356 2.223-.238.624-.619 1.211-1.143 1.76a5.715 5.715 0 01-1.923 1.337 6.02 6.02 0 01-2.342.45c-.862 0-1.636-.144-2.323-.431-.687-.288-1.318-.731-1.892-1.33-.537-.556-.93-1.15-1.174-1.78-.25-.625-.375-1.349-.375-2.167zm5.758-4.99c-.931 0-1.611.413-2.048 1.23-.438.819-.656 2.105-.656 3.854 0 1.598.225 2.797.674 3.59.45.793 1.124 1.187 2.03 1.187.911 0 1.586-.406 2.035-1.224.45-.812.675-2.048.675-3.703 0-1.686-.219-2.929-.662-3.728-.443-.806-1.124-1.205-2.048-1.205zm10.921 8.837c0 .33.056.55.162.643.106.094.312.144.625.144h.761v.812h-5.813v-.812h.774c.306 0 .506-.05.612-.144.106-.094.156-.312.156-.643V19.96c0-.337-.05-.556-.162-.656-.106-.1-.312-.15-.606-.15h-.774v-.793h9.51l.088 3.772h-.718c-.306-1.074-.75-1.836-1.318-2.292-.568-.456-1.386-.68-2.435-.68-.35 0-.581.05-.687.143-.106.094-.169.319-.169.662v7.812h-.006zm12.214-9.417v.8h-.874c-.3 0-.499.05-.606.143-.106.094-.156.319-.156.662v7.818c0 .344.05.562.156.65.107.093.306.137.606.137h.874v.812h-6.001v-.812h.843c.306 0 .506-.05.612-.15.107-.1.163-.312.163-.643V19.96c0-.331-.056-.55-.163-.65-.106-.1-.312-.15-.612-.15h-.843v-.799h6.001zm6.594 10.21h.775c.299 0 .499-.05.605-.144.107-.093.157-.312.157-.643V25.05a7.889 7.889 0 01-1.568.53 7.044 7.044 0 01-1.58.176c-.986 0-1.692-.181-2.11-.55-.419-.362-.631-.999-.631-1.898V19.96c0-.337-.05-.556-.162-.656-.106-.1-.313-.15-.606-.15h-.774v-.793h5.538v.8h-.487c-.306 0-.512.05-.618.15-.106.1-.162.318-.162.655v3.085c0 .524.106.88.312 1.074.206.194.568.293 1.087.293a5.239 5.239 0 001.767-.306V19.96c0-.337-.05-.556-.156-.656-.107-.1-.306-.15-.606-.15h-.493v-.793h5.532v.8h-.774c-.306 0-.506.05-.612.15-.106.1-.162.318-.162.655v7.818c0 .331.056.55.162.643.106.094.312.144.612.144h.768v.812h-5.814v-.812zm13.264 0h.768c.299 0 .499-.05.605-.144.106-.1.156-.312.156-.643v-3.584h-4.046v3.584c0 .331.056.55.162.643.107.094.313.144.625.144h.762v.812h-5.814v-.812h.774c.306 0 .506-.05.612-.144.107-.093.156-.312.156-.643v-7.824c0-.337-.049-.556-.162-.656-.106-.1-.312-.15-.606-.15h-.774v-.793h5.814v.8h-.762c-.306 0-.512.05-.618.15-.106.1-.163.318-.163.655v3.241h4.047v-3.247c0-.337-.05-.556-.156-.656-.107-.1-.306-.15-.606-.15h-.768v-.793h5.82v.8h-.781c-.3 0-.499.05-.606.143-.106.1-.156.319-.156.662v7.818c0 .344.05.562.15.65.1.093.306.137.606.137h.78v.812h-5.819v-.812zm12.638.812v-.793l.756-.05c.156-.006.262-.031.331-.088.069-.056.1-.137.1-.262a.63.63 0 00-.025-.168 3.073 3.073 0 00-.081-.256l-.687-1.705h-3.916l-.349.805c-.05.113-.088.244-.119.387a1.863 1.863 0 00-.044.394c0 .325.119.562.356.706.238.143.656.224 1.243.243v.793h-4.34v-.793a1.995 1.995 0 001.08-.568c.294-.3.587-.793.887-1.486l3.578-8.35h1.143l4.209 9.748c.106.238.224.4.362.488.137.087.356.137.649.162v.793h-5.133zm-1.505-8l-1.604 3.71h3.109l-1.505-3.71zM118.881 38.888v-.463l.437-.03a.32.32 0 00.193-.05c.038-.032.057-.082.057-.157 0-.025-.007-.056-.013-.1a5.56 5.56 0 00-.044-.15l-.399-.993h-2.28l-.206.469c-.031.069-.05.143-.068.225a1.026 1.026 0 00-.025.23c0 .194.068.325.206.413.137.08.381.13.724.143v.463h-2.523v-.463c.25-.043.456-.156.631-.33.169-.175.344-.463.518-.862l2.08-4.858h.662l2.448 5.67a.673.673 0 00.212.287c.081.056.206.08.374.093v.463h-2.984zM118 34.235l-.93 2.16h1.811l-.881-2.16zm5.476-1.049v4.209c0 .374.075.637.225.786.15.15.412.232.787.238v.468h-2.56v-.468c.356-.019.599-.1.737-.244.137-.143.206-.43.206-.849v-3.915c0-.194-.032-.319-.1-.381-.063-.063-.181-.094-.344-.094h-.449v-.462h2.866l1.386 3.84 1.311-3.84h2.817v.462h-.45c-.175 0-.293.031-.356.088-.062.056-.093.187-.093.38v4.553c0 .193.031.318.093.374.063.057.181.088.356.088h.45v.474h-3.316v-.474h.4c.181 0 .299-.031.362-.088.062-.056.093-.18.093-.374v-4.802l-1.929 5.738h-.443l-2.049-5.707zm7.232 5.702v-.475h.474c.181 0 .3-.031.362-.087.063-.057.094-.182.094-.375v-4.552c0-.194-.031-.319-.094-.381-.062-.063-.181-.088-.362-.088h-.474v-.462h5.57l.05 2.192h-.425c-.181-.624-.437-1.074-.768-1.336s-.799-.394-1.411-.394c-.2 0-.338.025-.4.088-.063.056-.1.18-.1.38v1.88h1.024c.937 0 1.642.163 2.117.481.475.319.712.793.712 1.418 0 .555-.231.98-.687 1.273-.456.288-1.13.431-2.011.431h-3.671v.007zm2.516-3.11v1.998c0 .275.037.45.112.518.075.075.269.107.575.107.562 0 .955-.107 1.18-.307.225-.206.337-.549.337-1.03 0-.45-.125-.774-.374-.98-.25-.206-.65-.306-1.206-.306h-.624zm9.205-1.842c.037-.075.062-.15.081-.231a.952.952 0 00.031-.213c0-.187-.062-.324-.193-.405-.132-.082-.356-.132-.681-.144v-.475h2.585l-.006.456a.996.996 0 00-.65.275c-.193.175-.374.437-.537.793l-1.161 2.585c-.481 1.055-.887 1.736-1.23 2.036-.337.3-.768.45-1.299.45-.456 0-.824-.15-1.105-.444-.281-.294-.425-.68-.425-1.149 0-.312.087-.574.256-.768a.836.836 0 01.662-.294c.206 0 .381.075.518.22a.753.753 0 01.213.536c0 .237-.107.437-.319.593-.212.156-.318.281-.318.363 0 .124.062.23.187.312a.79.79 0 00.462.13c.269 0 .512-.093.724-.28.206-.188.406-.487.581-.887h-.256l-2.323-4.065a.75.75 0 00-.268-.3.734.734 0 00-.369-.08s-.006 0-.018-.007c-.025 0-.05-.006-.075-.006v-.462h3.134v.462h-.318a.693.693 0 00-.319.056c-.068.037-.1.1-.1.18a.4.4 0 00.019.107.626.626 0 00.063.137l1.455 2.723.999-2.204zm5.819-1c-.268 0-.462.031-.568.094-.106.062-.187.181-.237.35-.05.18-.088.574-.113 1.173-.025.6-.056 1.05-.081 1.362-.094 1.199-.275 2.017-.543 2.466-.262.45-.675.669-1.224.669-.375 0-.674-.125-.906-.369-.224-.243-.337-.568-.337-.974 0-.343.088-.618.263-.837a.817.817 0 01.668-.325c.2 0 .368.07.499.207.131.137.2.305.2.505 0 .163-.031.294-.1.388a.55.55 0 01-.318.206 1.116 1.116 0 00-.131.037c-.2.05-.3.131-.3.244 0 .118.044.218.137.306a.46.46 0 00.325.13c.443 0 .768-.393.968-1.18.2-.786.3-2.066.3-3.846 0-.212-.05-.362-.144-.462-.094-.094-.25-.144-.456-.144h-.381v-.462h5.857v.462h-.455c-.175 0-.294.025-.35.088-.063.056-.094.18-.094.38v4.553c0 .2.031.324.094.38.062.057.175.082.35.082h.455v.474h-3.384v-.474h.443c.175 0 .294-.031.356-.088.063-.056.094-.18.094-.374v-5.02h-.887zm7.356 5.952v-.463l.437-.03c.088 0 .157-.02.194-.05.037-.032.056-.082.056-.157 0-.025-.006-.056-.012-.1l-.044-.15-.4-.993h-2.279l-.206.469a1.22 1.22 0 00-.094.456c0 .193.069.324.206.412.138.08.381.13.725.143v.463h-2.523v-.463c.25-.043.456-.156.631-.33.168-.175.343-.463.518-.862l2.079-4.858h.662l2.448 5.67a.681.681 0 00.212.287c.082.05.207.08.375.093v.463h-2.985zm-.874-4.653l-.93 2.16h1.811l-.881-2.16zm9.685.65c-.081-.619-.244-1.106-.506-1.462-.262-.356-.568-.53-.93-.53-.156 0-.263.03-.319.093-.056.063-.081.181-.081.362v4.609c0 .193.031.318.094.374.062.057.181.088.362.088h.431v.474H160.1v-.474h.443c.175 0 .294-.025.35-.088.063-.056.094-.18.094-.374v-4.609c0-.18-.025-.306-.081-.362-.05-.056-.157-.087-.313-.087-.368 0-.68.18-.936.53-.256.35-.425.843-.506 1.462h-.443l.137-2.417h5.857l.144 2.417h-.431v-.006zm.906.83c0-1.018.306-1.842.924-2.466.612-.625 1.424-.937 2.429-.937s1.811.312 2.429.937c.618.624.924 1.436.924 2.435 0 .5-.068.93-.206 1.293a3.04 3.04 0 01-.668 1.024 3.353 3.353 0 01-1.124.78 3.499 3.499 0 01-1.361.263c-.5 0-.949-.082-1.349-.25a3.241 3.241 0 01-1.099-.775 3.054 3.054 0 01-.681-1.036c-.15-.375-.218-.793-.218-1.268zm3.347-2.903c-.543 0-.937.237-1.193.718-.256.474-.381 1.224-.381 2.241 0 .93.131 1.63.394 2.086.262.456.655.693 1.18.693.531 0 .924-.237 1.186-.712.263-.474.394-1.192.394-2.154 0-.98-.131-1.705-.387-2.173-.257-.468-.656-.7-1.193-.7zm6.356 5.138c0 .194.025.32.081.375.057.057.175.088.356.088h.562v.475h-3.515v-.475h.474c.181 0 .3-.031.363-.087.062-.057.093-.182.093-.375v-4.552c0-.194-.031-.319-.093-.381-.063-.063-.182-.088-.363-.088h-.474v-.462h3.915c.799 0 1.405.156 1.823.462.413.313.619.762.619 1.355 0 .625-.244 1.093-.725 1.393-.481.3-1.224.456-2.229.456h-.443c-.144 0-.294-.007-.45-.007v1.824h.006zm0-4.451v2.129a1.921 1.921 0 00.45.031c.656 0 1.099-.1 1.336-.306.238-.206.356-.556.356-1.055 0-.493-.106-.843-.312-1.05-.206-.205-.568-.311-1.068-.311-.35 0-.562.03-.643.1-.081.068-.119.218-.119.462zm7.787-1.025v.462h-.506c-.175 0-.287.025-.35.088-.062.056-.093.18-.093.38v4.553c0 .2.031.324.093.38.063.057.182.082.35.082h.506v.474h-3.491v-.474h.487c.175 0 .294-.031.356-.088.063-.056.094-.18.094-.374v-4.553c0-.193-.031-.318-.094-.38-.062-.057-.181-.088-.356-.088h-.487v-.462h3.491zm3.865 6.413v-.474h.593c.113 0 .194-.038.25-.107.05-.075.075-.187.075-.35V35.81c-.05 0-.112 0-.181-.007-.075 0-.119-.006-.15-.006-.493 0-.824.081-.993.237-.168.157-.268.5-.299 1.037a5.605 5.605 0 00-.013.406c0 .35-.031.593-.081.737-.094.287-.256.5-.481.63-.225.138-.524.206-.899.206-.468 0-.831-.137-1.093-.412-.262-.274-.393-.655-.393-1.155v-.069h.449c.007.3.038.519.1.662.063.138.15.213.275.213.175 0 .312-.238.4-.718a5.38 5.38 0 01.168-.718c.119-.35.294-.619.525-.812a1.33 1.33 0 01.837-.3l.006-.063h-.131c-.512 0-.949-.15-1.305-.443a1.394 1.394 0 01-.544-1.13c0-.53.206-.93.612-1.212.406-.274.999-.418 1.78-.418h3.915v.462h-.599c-.119 0-.2.038-.25.113-.05.075-.081.193-.081.355v4.553c0 .175.031.3.087.362.056.062.181.1.369.1h.474v.474h-3.422v-.006zm.918-3.553l.006-1.91c0-.213-.037-.35-.118-.407-.081-.056-.269-.08-.568-.08-.562 0-.95.087-1.168.268-.219.175-.325.487-.325.924 0 .45.131.768.393.949.263.181.731.275 1.412.275.043 0 .1 0 .156-.006.056 0 .131-.007.212-.013zM76 52.956v-.811h.818c.306 0 .518-.05.624-.15.107-.1.163-.312.163-.643v-7.818c0-.331-.056-.55-.163-.65-.112-.1-.318-.15-.618-.15h-.818v-.799h6.532c1.255 0 2.223.225 2.891.68.668.45 1.005 1.106 1.005 1.955 0 .75-.256 1.343-.774 1.774-.512.43-1.292.712-2.329.836 1.13.075 2.023.369 2.666.875.644.505.968 1.167.968 1.98 0 .96-.393 1.685-1.18 2.185-.787.5-1.942.743-3.453.743H76v-.007zm4.296-9.391v3.284c.075.013.156.02.244.025.087.007.212.007.368.007 1.05 0 1.773-.157 2.186-.475.406-.312.612-.855.612-1.623 0-.756-.169-1.287-.512-1.593-.344-.306-.95-.462-1.824-.462-.462 0-.755.05-.88.144-.125.093-.188.287-.188.574v.119h-.006zm0 7.48c0 .475.063.769.194.894.13.124.474.187 1.043.187.936 0 1.604-.175 1.992-.525.393-.35.587-.93.587-1.73 0-.405-.075-.761-.219-1.067a1.737 1.737 0 00-.643-.73 2.117 2.117 0 00-.756-.275c-.293-.05-.849-.075-1.66-.075-.082 0-.163 0-.244.006-.075 0-.175.012-.294.025v3.29zm7.649 1.911v-.811h.762c.306 0 .518-.05.625-.15.106-.1.162-.312.162-.643v-7.818c0-.331-.056-.55-.162-.65-.107-.1-.313-.15-.619-.15h-.761v-.799h9.947l.125 3.971h-.756c-.28-1.18-.712-2.004-1.299-2.478-.587-.475-1.48-.712-2.666-.712-.5 0-.812.05-.937.156-.118.106-.18.324-.18.662v3.315h.293c.618 0 1.08-.156 1.398-.474.313-.312.55-.868.7-1.649h.762v5.052h-.762c-.15-.8-.387-1.349-.706-1.655-.318-.306-.824-.456-1.51-.456h-.17v3.685c0 .337.07.562.2.668.131.106.456.162.962.162 1.293 0 2.254-.256 2.897-.762.644-.506 1.112-1.392 1.43-2.66l.762.063-.2 4.133H87.945zm22.268-3.74c-.269 1.305-.818 2.304-1.642 2.997-.825.694-1.892 1.037-3.197 1.037-1.643 0-2.992-.543-4.041-1.63-1.049-1.086-1.573-2.473-1.573-4.171 0-1.68.531-3.06 1.592-4.134 1.062-1.08 2.435-1.617 4.115-1.617.556 0 1.068.068 1.53.206.462.137.899.35 1.311.643l.85-.787h.643l.218 4.44-.774.056c-.325-1.249-.787-2.198-1.386-2.835-.6-.637-1.324-.955-2.173-.955-1.006 0-1.736.387-2.186 1.155-.456.768-.68 2.01-.68 3.728 0 1.76.237 3.01.718 3.753.474.743 1.267 1.118 2.366 1.118.856 0 1.58-.281 2.18-.843.593-.562 1.036-1.374 1.317-2.448l.812.287zm1.168 3.74v-.811h.762c.306 0 .518-.05.624-.15.106-.1.162-.312.162-.643v-7.818c0-.331-.056-.55-.162-.65-.112-.1-.318-.15-.618-.15h-.762v-.799h9.947l.125 3.971h-.755c-.281-1.18-.712-2.004-1.299-2.478-.587-.475-1.48-.712-2.666-.712-.5 0-.812.05-.937.156s-.181.324-.181.662v3.315h.293c.619 0 1.081-.156 1.399-.474.312-.312.55-.868.699-1.649h.762v5.052h-.762c-.149-.8-.38-1.349-.705-1.655-.319-.306-.824-.456-1.511-.456h-.175v3.685c0 .337.069.562.2.668.131.106.455.162.968.162 1.292 0 2.254-.256 2.897-.762.643-.506 1.111-1.392 1.43-2.66l.762.063-.2 4.133h-10.297zm18.121-10.222c-.468 0-.793.056-.974.163-.181.106-.318.306-.399.6-.082.311-.15.986-.2 2.01-.05 1.03-.094 1.81-.138 2.341-.162 2.055-.474 3.472-.93 4.234-.456.768-1.155 1.15-2.104 1.15-.644 0-1.162-.213-1.555-.632-.394-.418-.587-.98-.587-1.673 0-.587.15-1.062.449-1.436.3-.375.687-.556 1.149-.556.344 0 .631.119.862.35.231.237.343.524.343.874 0 .28-.056.506-.168.668-.113.162-.294.281-.55.356-.05.012-.124.037-.224.056-.344.088-.512.231-.512.419 0 .206.081.38.237.524.156.15.343.219.562.219.762 0 1.317-.675 1.667-2.024.35-1.348.518-3.553.518-6.612 0-.363-.081-.625-.243-.794-.163-.168-.425-.243-.781-.243h-.655v-.8h10.059v.8h-.78c-.3 0-.5.05-.606.144-.106.093-.156.318-.156.661v7.819c0 .343.05.562.156.649.106.087.306.137.606.137h.78v.812h-5.813v-.812h.762c.306 0 .505-.05.612-.15.106-.1.162-.312.162-.643v-8.61h-1.549zm6.713 4.777c0-1.748.525-3.16 1.586-4.24 1.056-1.074 2.448-1.61 4.172-1.61 1.723 0 3.116.536 4.177 1.604 1.062 1.068 1.593 2.466 1.593 4.184 0 .855-.119 1.592-.356 2.223-.238.624-.619 1.211-1.143 1.76a5.725 5.725 0 01-1.923 1.337c-.719.3-1.499.45-2.342.45-.862 0-1.636-.144-2.323-.431-.687-.287-1.318-.73-1.892-1.33-.537-.556-.93-1.15-1.174-1.78-.25-.63-.375-1.355-.375-2.167zm5.751-4.995c-.93 0-1.611.412-2.048 1.23-.437.818-.655 2.104-.655 3.853 0 1.598.224 2.797.674 3.59.45.793 1.124 1.187 2.029 1.187.912 0 1.587-.406 2.036-1.224.45-.812.675-2.049.675-3.703 0-1.686-.219-2.929-.662-3.728-.437-.806-1.124-1.205-2.049-1.205zm6.595 10.44v-.811h.818c.306 0 .518-.05.624-.15.106-.1.162-.312.162-.643v-7.818c0-.331-.056-.55-.162-.65-.106-.1-.312-.15-.618-.15h-.818v-.799h6.531c1.256 0 2.223.225 2.892.68.668.45 1.005 1.106 1.005 1.955 0 .75-.256 1.343-.774 1.774-.519.43-1.293.712-2.329.836 1.13.075 2.023.369 2.666.875.643.505.962 1.167.962 1.98 0 .96-.394 1.685-1.181 2.185-.786.5-1.935.743-3.453.743h-6.325v-.007zm4.302-9.391v3.284c.075.013.156.02.243.025.088.007.213.007.369.007 1.049 0 1.773-.157 2.185-.475.406-.312.612-.855.612-1.623 0-.756-.168-1.287-.512-1.593-.343-.306-.949-.462-1.823-.462-.462 0-.756.05-.88.144-.125.093-.188.287-.188.574v.119h-.006zm0 7.48c0 .475.062.769.194.894.131.124.474.187 1.042.187.937 0 1.605-.175 1.992-.525.387-.35.587-.93.587-1.73 0-.405-.075-.761-.218-1.067a1.78 1.78 0 00-.643-.73 2.116 2.116 0 00-.756-.275c-.3-.05-.849-.082-1.661-.082-.087 0-.162 0-.244.007-.074 0-.174.012-.293.025v3.297zm18.334-1.829c-.269 1.305-.818 2.304-1.643 2.997-.824.694-1.892 1.037-3.203 1.037-1.642 0-2.991-.543-4.04-1.63-1.049-1.086-1.574-2.473-1.574-4.171 0-1.68.531-3.06 1.593-4.134 1.061-1.08 2.435-1.617 4.115-1.617.555 0 1.068.068 1.53.206.462.137.899.35 1.311.643l.849-.787h.643l.219 4.44-.774.056c-.325-1.249-.787-2.198-1.387-2.835-.599-.637-1.323-.955-2.173-.955-1.005 0-1.736.387-2.185 1.155-.456.768-.681 2.01-.681 3.728 0 1.76.237 3.01.718 3.753.475.743 1.268 1.118 2.367 1.118.855 0 1.58-.281 2.179-.843.593-.562 1.037-1.374 1.318-2.448l.818.287zm1.093 3.74v-.811h.818c.306 0 .512-.05.624-.15.106-.1.162-.312.162-.643v-7.818c0-.331-.056-.55-.162-.65-.112-.1-.318-.15-.618-.15h-.818v-.799h5.92v.8h-.819c-.299 0-.499.05-.605.143-.106.094-.163.318-.163.662v3.228h1.761c1.611 0 2.823.275 3.641.825.818.549 1.224 1.36 1.224 2.441 0 .962-.394 1.686-1.18 2.186-.787.5-1.942.743-3.454.743h-6.331v-.007zm4.333-5.345v3.435c0 .474.063.768.194.893.131.124.456.187.98.187.968 0 1.649-.175 2.03-.53.387-.35.58-.944.58-1.774 0-.768-.212-1.33-.643-1.686-.424-.35-1.118-.531-2.073-.531h-1.068v.006zm11.577-.774h.493c.643 0 1.149-.138 1.505-.412.356-.275.606-.712.737-1.318.037-.169.087-.418.15-.743.143-.762.287-1.286.431-1.586.2-.4.468-.706.818-.905.343-.2.768-.3 1.267-.3.65 0 1.174.18 1.586.543.413.362.619.824.619 1.38 0 .368-.119.668-.35.912-.231.237-.531.356-.906.356-.387 0-.693-.094-.924-.275-.231-.181-.343-.431-.343-.743 0-.231.075-.462.231-.693.156-.231.231-.356.231-.387a.183.183 0 00-.094-.17.5.5 0 00-.256-.062.885.885 0 00-.762.394c-.187.262-.362.805-.53 1.636-.188.918-.394 1.549-.612 1.898a1.375 1.375 0 01-.899.637v.088c.793.025 1.423.2 1.885.524.462.325.787.818.968 1.48.1.368.194.862.287 1.492.132.9.363 1.35.687 1.35.244 0 .425-.12.537-.357.113-.237.175-.618.188-1.142h.762v.043c0 .918-.213 1.611-.644 2.074-.424.462-1.061.693-1.91.693-.856 0-1.468-.219-1.843-.662-.374-.444-.599-1.287-.68-2.542-.081-1.105-.262-1.78-.543-2.023-.281-.244-.806-.362-1.568-.362-.037 0-.118 0-.237.006s-.212.006-.287.006v3.697c0 .331.056.55.162.643.106.094.312.144.624.144h.762v.812h-5.813v-.812h.774c.306 0 .506-.05.612-.144.106-.093.156-.312.156-.643v-7.83c0-.338-.05-.556-.162-.656-.106-.1-.312-.15-.606-.15h-.774v-.8h5.813v.8h-.762c-.306 0-.512.05-.618.15-.106.1-.162.318-.162.655v3.304zm8.449.674c0-1.748.524-3.16 1.586-4.24 1.055-1.074 2.448-1.61 4.171-1.61 1.724 0 3.116.536 4.178 1.604 1.061 1.068 1.592 2.466 1.592 4.184 0 .855-.119 1.592-.356 2.223-.237.624-.618 1.211-1.143 1.76a5.715 5.715 0 01-1.923 1.337 6.01 6.01 0 01-2.341.45c-.862 0-1.637-.144-2.323-.431-.687-.287-1.318-.73-1.892-1.33-.537-.556-.931-1.15-1.174-1.78-.256-.63-.375-1.355-.375-2.167zm5.751-4.995c-.93 0-1.611.412-2.048 1.23-.437.818-.656 2.104-.656 3.853 0 1.598.225 2.797.675 3.59.449.793 1.124 1.187 2.029 1.187.912 0 1.586-.406 2.036-1.224.449-.812.674-2.049.674-3.703 0-1.686-.218-2.929-.662-3.728-.443-.806-1.124-1.205-2.048-1.205zm10.927 8.836c0 .33.057.55.163.643.106.093.312.143.624.143h.762v.812h-5.814v-.812h.775c.306 0 .506-.05.612-.143.106-.094.156-.313.156-.643v-7.819c0-.337-.05-.555-.162-.655-.107-.1-.313-.15-.606-.15h-.775v-.8h9.511l.087 3.772h-.718c-.306-1.074-.749-1.836-1.318-2.291-.574-.456-1.386-.681-2.435-.681-.35 0-.581.05-.687.144-.106.093-.168.318-.168.661v7.819h-.007zm6.382-3.841c0-1.748.525-3.16 1.587-4.24 1.055-1.074 2.447-1.61 4.171-1.61 1.723 0 3.116.536 4.177 1.604 1.062 1.068 1.593 2.466 1.593 4.184 0 .855-.119 1.592-.356 2.223-.238.624-.618 1.211-1.143 1.76a5.715 5.715 0 01-1.923 1.337 6.02 6.02 0 01-2.342.45c-.862 0-1.636-.144-2.323-.431-.687-.287-1.317-.73-1.892-1.33-.537-.556-.93-1.15-1.174-1.78-.25-.63-.375-1.355-.375-2.167zm5.758-4.995c-.931 0-1.611.412-2.048 1.23-.437.818-.656 2.104-.656 3.853 0 1.598.225 2.797.674 3.59.45.793 1.124 1.187 2.03 1.187.912 0 1.586-.406 2.036-1.224.449-.812.674-2.049.674-3.703 0-1.686-.219-2.929-.662-3.728-.443-.806-1.124-1.205-2.048-1.205z" fill="#000"/><path fill-rule="evenodd" clip-rule="evenodd" d="M110.8 36.633H80.683a.85.85 0 010-1.698H110.8a.85.85 0 010 1.698z" fill="url(#paint0_linear)"/><path fill-rule="evenodd" clip-rule="evenodd" d="M224.499 36.633h-30.117a.85.85 0 010-1.698h30.117a.85.85 0 010 1.698z" fill="url(#paint1_linear)"/><path fill-rule="evenodd" clip-rule="evenodd" d="M39.46 61.52c-1.21.09-2.41.15-3.55.13-1.13-.02-2.19-.11-3.35-.34-1.16-.23-2.43-.61-4.1-1.24-1.67-.63-3.76-1.51-5.44-2.45-1.68-.94-2.97-1.95-4.23-3.12-1.25-1.17-2.47-2.5-3.55-3.95a30.985 30.985 0 01-2.78-4.48c-.74-1.47-1.26-2.84-1.65-4.24-.38-1.4-.62-2.81-.71-4.16-.09-1.35-.02-2.62.22-3.93.24-1.3.65-2.63 1.16-3.85.51-1.22 1.12-2.32 1.91-3.39.79-1.07 1.76-2.1 2.99-3.12 1.23-1.01 2.73-2 4-2.72 1.27-.72 2.31-1.16 3.32-1.6 1-.43 1.97-.85 2.46-1.07.49-.22.52-.23.53-.24.01-.01.01-.01-.97.05-.98.06-2.93.17-4.54.29-1.61.12-2.87.25-4.24.62s-2.86.98-4.1 1.67c-1.24.7-2.24 1.48-3.08 2.37-.84.89-1.53 1.88-2.1 3.04-.57 1.16-1.04 2.5-1.29 3.9s-.3 2.86-.2 4.27c.1 1.41.33 2.77.6 4.02.28 1.25.6 2.41 1.05 3.64.45 1.23 1.02 2.53 2.02 4.21 1 1.68 2.42 3.74 4 5.62 1.57 1.88 3.3 3.57 4.9 4.94 1.6 1.37 3.06 2.41 4.77 3.32 1.71.91 3.66 1.68 5.41 2.21 1.75.52 3.29.79 4.44.93 1.15.14 1.9.15 2.93.06 1.03-.1 2.34-.3 3.52-.6 1.18-.31 2.22-.72 2.75-.93l.52-.21-.6.06c-.61.07-1.81.2-3.02.29z" fill="url(#paint2_linear)"/><path fill-rule="evenodd" clip-rule="evenodd" d="M27.25 11.23c.22 1.47.52 2.94.95 4.36.43 1.42.98 2.79 1.26 3.48l.28.69-.04-.29c-.04-.29-.11-.88-.23-2.15-.12-1.26-.28-3.2-.35-4.85-.07-1.65-.04-3.01.06-4.03.1-1.01.28-1.67.5-2.12.22-.44.48-.67.74-.78.26-.1.53-.08.85.04.32.12.7.35.93.46.23.11.32.09.19-.25-.13-.34-.48-1.02-1.01-1.63-.53-.61-1.24-1.17-1.78-1.53-.54-.36-.91-.52-1.19-.55-.28-.02-.46.1-.65.26-.18.15-.36.34-.53.7-.17.36-.33.89-.41 1.55-.07.66-.06 1.45.01 2.58.08 1.13.21 2.6.42 4.06z" fill="url(#paint3_linear)"/><path fill-rule="evenodd" clip-rule="evenodd" d="M66.04 33.49c-.09-2.01-.24-4.08-.59-5.95-.36-1.87-.92-3.56-1.59-5.17-.67-1.61-1.45-3.13-2.21-4.37-.77-1.24-1.53-2.2-2.34-3.09-.81-.89-1.67-1.71-2.6-2.39-.93-.68-1.92-1.22-3.1-1.58-1.18-.36-2.53-.53-4.08-.45-1.55.08-3.31.41-4.94 1.04-1.63.63-3.13 1.56-4.55 2.5-1.41.94-2.74 1.91-3.81 2.83-1.07.92-1.88 1.81-2.67 2.47a9.25 9.25 0 01-2.31 1.43c-.77.34-1.55.59-2.36.79-.81.2-1.66.37-2.09.45l-.42.08.35.03c.35.03 1.05.08 1.9.04.85-.04 1.85-.16 2.88-.47 1.03-.32 2.1-.83 3.3-1.52 1.2-.69 2.54-1.56 3.76-2.27 1.23-.71 2.34-1.26 3.65-1.7a19.6 19.6 0 014.24-.9c1.44-.14 2.84-.1 4.12.16 1.28.26 2.44.75 3.51 1.41 1.07.66 2.05 1.49 2.85 2.41.8.92 1.42 1.93 2 3.02.57 1.08 1.1 2.24 1.5 3.63.4 1.39.67 3.03.84 4.71.17 1.68.25 3.41.23 4.85-.02 1.44-.13 2.6-.33 4.1-.2 1.5-.48 3.35-.76 4.86-.28 1.51-.57 2.7-.98 3.84-.42 1.14-.97 2.24-1.53 3.22-.55.99-1.11 1.86-1.94 2.92-.83 1.06-1.95 2.31-3.01 3.26-1.06.95-2.08 1.62-3.14 2.13-1.06.51-2.18.87-2.96 1.12-.78.25-1.23.38-1.45.44l-.22.07.63-.03c.63-.03 1.9-.1 3.21-.3 1.31-.2 2.65-.53 3.98-1.05a18.65 18.65 0 003.82-2.07c1.19-.85 2.28-1.84 3.36-3.17 1.07-1.34 2.13-3.02 2.94-4.82.81-1.8 1.38-3.72 1.84-5.5.47-1.78.84-3.42 1.01-5.22.17-1.82.15-3.78.06-5.79z" fill="url(#paint4_linear)"/><path fill-rule="evenodd" clip-rule="evenodd" d="M47.15 59.55c.54-.11 1.09-.29 1.48-.54.39-.25.61-.57.72-.73.11-.16.11-.16-.07-.13s-.55.09-.97.09c-.42 0-.89-.05-1.21-.19-.32-.14-.5-.37-.59-.61-.09-.24-.09-.49-.01-.76s.25-.54.32-.78c.07-.23.05-.42-.11-.52-.16-.1-.45-.12-.74.02-.29.14-.57.44-1.02.82-.46.39-1.09.86-1.66 1.25-.57.39-1.08.69-1.69.95-.6.27-1.3.5-1.87.65-.57.15-1.03.22-1.47.27-.44.05-.87.09-1.21.07-.33-.01-.57-.07-.69-.1l-.12-.03.22.14c.22.14.66.42 1.27.63.61.21 1.38.34 2.12.4.75.06 1.47.04 2.15-.06.68-.1 1.32-.3 1.73-.5.41-.21.58-.42.7-.53.12-.11.17-.12.36-.04.18.08.5.26.91.32.4.07.91.02 1.45-.09z" fill="url(#paint5_linear)"/><path fill-rule="evenodd" clip-rule="evenodd" d="M26.45 16.47l.4.41-.07-.2c-.07-.2-.21-.59-.58-1.26-.38-.67-.99-1.62-2.1-2.59-1.11-.97-2.71-1.96-4.28-2.66-1.57-.71-3.1-1.14-4.71-1.45-1.6-.31-3.28-.49-4.57-.5-1.29-.01-2.2.16-2.65.25l-.45.1.56.09c.56.09 1.69.26 3.05.53 1.37.26 2.98.62 4.43 1.03 1.46.41 2.76.87 4.23 1.58 1.47.71 3.1 1.66 4.31 2.55 1.23.88 2.03 1.7 2.43 2.12z" fill="url(#paint6_linear)"/><path fill-rule="evenodd" clip-rule="evenodd" d="M13.38 15.28c.7.05 1.51.02 2.31-.07.8-.09 1.59-.24 2.35-.52.76-.27 1.49-.67 1.93-.94.44-.27.58-.41.66-.48l.09-.09c.01-.01.01-.01-.73.14-.73.14-2.2.43-3.74.73s-3.15.61-3.96.77l-.81.16.3.07c.3.05.89.18 1.6.23z" fill="url(#paint7_linear)"/><path fill-rule="evenodd" clip-rule="evenodd" d="M6.63 12.41c.44.07 1.06.14 1.81.12.75-.02 1.64-.12 2.4-.29.76-.16 1.4-.39 2.05-.71.65-.32 1.32-.74 1.66-.95l.34-.21-.2.05c-.2.05-.59.14-1.41.33s-2.05.47-3.4.73c-1.34.25-2.79.48-3.52.59l-.72.11.14.04c.14.03.41.11.85.19z" fill="url(#paint8_linear)"/><path fill-rule="evenodd" clip-rule="evenodd" d="M3.83 8.79c.57.21 1.49.42 2.35.47.86.06 1.66-.03 2.06-.08l.4-.05v-.02c0-.02-.01-.05-.32-.11-.31-.05-.93-.14-1.53-.22-.6-.08-1.19-.15-1.84-.25-.66-.11-1.37-.26-1.73-.33l-.35-.07.1.11c.1.11.3.33.86.55z" fill="url(#paint9_linear)"/><path fill-rule="evenodd" clip-rule="evenodd" d="M6.9 7.49c-.27-.26-.8-.78-1.66-1.5-.86-.72-2.05-1.64-2.65-2.11L2 3.42l.09.25c.09.26.27.77.92 1.43.65.66 1.77 1.47 2.55 1.95.79.48 1.24.63 1.45.69.22.07.19.04.17.03l-.28-.28z" fill="url(#paint10_linear)"/><path fill-rule="evenodd" clip-rule="evenodd" d="M7.7 5.95c.48.23 1.4.65 2.1.98.69.32 1.16.53 1.39.64l.23.11-.32-.24c-.32-.24-.96-.71-1.66-1.06-.7-.35-1.45-.58-1.84-.68-.4-.1-.42-.07-.42-.04.01.03.04.06.52.29z" fill="url(#paint11_linear)"/><path fill-rule="evenodd" clip-rule="evenodd" d="M17.81 8.76l.18.08-.15-.17c-.15-.17-.46-.5-.88-.77-.43-.27-.97-.47-1.25-.57l-.27-.1.24.18c.24.18.72.55 1.15.82.43.28.8.45.98.53z" fill="url(#paint12_linear)"/><path fill-rule="evenodd" clip-rule="evenodd" d="M24.05 12.08c.22.24.21.2.21.19v-.02l-.1-.21c-.1-.21-.3-.62-.61-1.04-.32-.43-.75-.87-.97-1.09l-.22-.22.1.19c.1.19.29.57.61 1.01.32.45.76.95.98 1.19z" fill="url(#paint13_linear)"/><path fill-rule="evenodd" clip-rule="evenodd" d="M16.85 17.88c1.61-.18 3.25-.53 4.52-.9 1.27-.37 2.18-.76 2.63-.96l.45-.2-.44.1c-.44.1-1.31.3-2.35.46-1.04.16-2.24.28-3.43.24-1.19-.04-2.38-.24-3.42-.44s-1.94-.41-2.9-.68c-.96-.26-1.99-.58-3.06-1.03-1.07-.45-2.19-1.04-3.17-1.65-.98-.61-1.81-1.24-2.48-2.04-.67-.8-1.17-1.77-1.48-2.64-.3-.87-.43-1.64-.43-2.44 0-.81.12-1.65.18-2.07l.06-.42.63.27c.63.27 1.89.8 3.04 1.19 1.15.39 2.2.64 3.47.95 1.27.31 2.77.68 4.12.95 1.35.27 2.56.43 3.72.66 1.16.23 2.27.54 3.32.91 1.05.38 2.03.83 2.9 1.36.86.53 1.61 1.14 2.22 1.83.61.68 1.08 1.43 1.32 1.81.24.38.24.38.23.36 0-.02-.01-.05-.04-.23-.04-.18-.11-.52-.29-1s-.46-1.1-.95-1.78c-.49-.68-1.2-1.43-2.1-2.11-.9-.68-1.99-1.31-3.53-1.85-1.53-.54-3.5-1-5.33-1.33-1.83-.34-3.5-.55-4.92-.78-1.42-.23-2.58-.46-3.56-.77S4 2.96 3.28 2.58c-.71-.38-1.34-.76-1.82-1.21C.98.92.65.4.48.16.31-.08.28-.05.22.26s-.16.89-.2 1.72C-.02 2.81 0 3.89.1 5.12c.1 1.23.28 2.63.66 3.9s.97 2.42 1.77 3.49c.8 1.07 1.82 2.07 3.44 2.99 1.62.92 3.85 1.76 5.76 2.17 1.92.41 3.51.39 5.12.21z" fill="url(#paint14_linear)"/></g><defs><linearGradient id="paint0_linear" x1="79.838" y1="35.789" x2="111.649" y2="35.789" gradientUnits="userSpaceOnUse"><stop stop-color="#E94E1B"/><stop offset=".452" stop-color="#F9B233"/><stop offset="1" stop-color="#E6332A"/></linearGradient><linearGradient id="paint1_linear" x1="193.534" y1="35.789" x2="225.345" y2="35.789" gradientUnits="userSpaceOnUse"><stop stop-color="#E94E1B"/><stop offset=".452" stop-color="#F9B233"/><stop offset="1" stop-color="#E6332A"/></linearGradient><linearGradient id="paint2_linear" x1="6.117" y1="40.372" x2="43.069" y2="40.372" gradientUnits="userSpaceOnUse"><stop stop-color="#E94E1B"/><stop offset=".452" stop-color="#F9B233"/><stop offset="1" stop-color="#E6332A"/></linearGradient><linearGradient id="paint3_linear" x1="26.77" y1="10.923" x2="32.439" y2="10.923" gradientUnits="userSpaceOnUse"><stop stop-color="#E94E1B"/><stop offset=".452" stop-color="#F9B233"/><stop offset="1" stop-color="#E6332A"/></linearGradient><linearGradient id="paint4_linear" x1="26.39" y1="35.95" x2="66.108" y2="35.95" gradientUnits="userSpaceOnUse"><stop stop-color="#E94E1B"/><stop offset=".452" stop-color="#F9B233"/><stop offset="1" stop-color="#E6332A"/></linearGradient><linearGradient id="paint5_linear" x1="36.22" y1="57.895" x2="49.419" y2="57.895" gradientUnits="userSpaceOnUse"><stop stop-color="#E94E1B"/><stop offset=".452" stop-color="#F9B233"/><stop offset="1" stop-color="#E6332A"/></linearGradient><linearGradient id="paint6_linear" x1="7.441" y1="12.556" x2="26.851" y2="12.556" gradientUnits="userSpaceOnUse"><stop stop-color="#E94E1B"/><stop offset=".452" stop-color="#F9B233"/><stop offset="1" stop-color="#E6332A"/></linearGradient><linearGradient id="paint7_linear" x1="11.481" y1="14.239" x2="20.719" y2="14.239" gradientUnits="userSpaceOnUse"><stop stop-color="#E94E1B"/><stop offset=".452" stop-color="#F9B233"/><stop offset="1" stop-color="#E6332A"/></linearGradient><linearGradient id="paint8_linear" x1="5.644" y1="11.447" x2="14.887" y2="11.447" gradientUnits="userSpaceOnUse"><stop stop-color="#E94E1B"/><stop offset=".452" stop-color="#F9B233"/><stop offset="1" stop-color="#E6332A"/></linearGradient><linearGradient id="paint9_linear" x1="2.865" y1="8.705" x2="8.645" y2="8.705" gradientUnits="userSpaceOnUse"><stop stop-color="#E94E1B"/><stop offset=".452" stop-color="#F9B233"/><stop offset="1" stop-color="#E6332A"/></linearGradient><linearGradient id="paint10_linear" x1="1.999" y1="5.603" x2="7.191" y2="5.603" gradientUnits="userSpaceOnUse"><stop stop-color="#E94E1B"/><stop offset=".452" stop-color="#F9B233"/><stop offset="1" stop-color="#E6332A"/></linearGradient><linearGradient id="paint11_linear" x1="7.183" y1="6.651" x2="11.411" y2="6.651" gradientUnits="userSpaceOnUse"><stop stop-color="#E94E1B"/><stop offset=".452" stop-color="#F9B233"/><stop offset="1" stop-color="#E6332A"/></linearGradient><linearGradient id="paint12_linear" x1="15.441" y1="8.043" x2="17.994" y2="8.043" gradientUnits="userSpaceOnUse"><stop stop-color="#E94E1B"/><stop offset=".452" stop-color="#F9B233"/><stop offset="1" stop-color="#E6332A"/></linearGradient><linearGradient id="paint13_linear" x1="22.362" y1="10.983" x2="24.258" y2="10.983" gradientUnits="userSpaceOnUse"><stop stop-color="#E94E1B"/><stop offset=".452" stop-color="#F9B233"/><stop offset="1" stop-color="#E6332A"/></linearGradient><linearGradient id="paint14_linear" x1="0" y1="9.002" x2="26.503" y2="9.002" gradientUnits="userSpaceOnUse"><stop stop-color="#E94E1B"/><stop offset=".452" stop-color="#F9B233"/><stop offset="1" stop-color="#E6332A"/></linearGradient><clipPath id="clip0"><path fill="#fff" d="M0 0h231v63H0z"/></clipPath></defs></svg>