<svg width="67" height="63" fill="none" xmlns="http://www.w3.org/2000/svg"><path fill-rule="evenodd" clip-rule="evenodd" d="M39.46 61.52c-1.21.09-2.41.15-3.55.13-1.13-.02-2.19-.11-3.35-.34-1.16-.23-2.43-.61-4.1-1.24-1.67-.63-3.76-1.51-5.44-2.45-1.68-.94-2.97-1.95-4.23-3.12-1.25-1.17-2.47-2.5-3.55-3.95a30.985 30.985 0 01-2.78-4.48c-.74-1.47-1.26-2.84-1.65-4.24-.38-1.4-.62-2.81-.71-4.16-.09-1.35-.02-2.62.22-3.93.24-1.3.65-2.63 1.16-3.85.51-1.22 1.12-2.32 1.91-3.39.79-1.07 1.76-2.1 2.99-3.12 1.23-1.01 2.73-2 4-2.72 1.27-.72 2.31-1.16 3.32-1.6 1-.43 1.97-.85 2.46-1.07.49-.22.52-.23.53-.24.01-.01.01-.01-.97.05-.98.06-2.93.17-4.54.29-1.61.12-2.87.25-4.24.62s-2.86.98-4.1 1.67c-1.24.7-2.24 1.48-3.08 2.37-.84.89-1.53 1.88-2.1 3.04-.57 1.16-1.04 2.5-1.29 3.9s-.3 2.86-.2 4.27c.1 1.41.33 2.77.6 4.02.28 1.25.6 2.41 1.05 3.64.45 1.23 1.02 2.53 2.02 4.21 1 1.68 2.42 3.74 4 5.62 1.57 1.88 3.3 3.57 4.9 4.94 1.6 1.37 3.06 2.41 4.77 3.32 1.71.91 3.66 1.68 5.41 2.21 1.75.52 3.29.79 4.44.93 1.15.14 1.9.15 2.93.06 1.03-.1 2.34-.3 3.52-.6 1.18-.31 2.22-.72 2.75-.93l.52-.21-.6.06c-.61.07-1.81.2-3.02.29z" fill="url(#paint0_linear)"/><path fill-rule="evenodd" clip-rule="evenodd" d="M27.25 11.23c.22 1.47.52 2.94.95 4.36.43 1.42.98 2.79 1.26 3.48l.28.69-.04-.29c-.04-.29-.11-.88-.23-2.15-.12-1.26-.28-3.2-.35-4.85-.07-1.65-.04-3.01.06-4.03.1-1.01.28-1.67.5-2.12.22-.44.48-.67.74-.78.26-.1.53-.08.85.04.32.12.7.35.93.46.23.11.32.09.19-.25-.13-.34-.48-1.02-1.01-1.63-.53-.61-1.24-1.17-1.78-1.53-.54-.36-.91-.52-1.19-.55-.28-.02-.46.1-.65.26-.18.15-.36.34-.53.7-.17.36-.33.89-.41 1.55-.07.66-.06 1.45.01 2.58.08 1.13.21 2.6.42 4.06z" fill="url(#paint1_linear)"/><path fill-rule="evenodd" clip-rule="evenodd" d="M66.04 33.49c-.09-2.01-.24-4.08-.59-5.95-.36-1.87-.92-3.56-1.59-5.17-.67-1.61-1.45-3.13-2.21-4.37-.77-1.24-1.53-2.2-2.34-3.09-.81-.89-1.67-1.71-2.6-2.39-.93-.68-1.92-1.22-3.1-1.58-1.18-.36-2.53-.53-4.08-.45-1.55.08-3.31.41-4.94 1.04-1.63.63-3.13 1.56-4.55 2.5-1.41.94-2.74 1.91-3.81 2.83-1.07.92-1.88 1.81-2.67 2.47a9.25 9.25 0 01-2.31 1.43c-.77.34-1.55.59-2.36.79-.81.2-1.66.37-2.09.45l-.42.08.35.03c.35.03 1.05.08 1.9.04.85-.04 1.85-.16 2.88-.47 1.03-.32 2.1-.83 3.3-1.52 1.2-.69 2.54-1.56 3.76-2.27 1.23-.71 2.34-1.26 3.65-1.7a19.6 19.6 0 014.24-.9c1.44-.14 2.84-.1 4.12.16 1.28.26 2.44.75 3.51 1.41 1.07.66 2.05 1.49 2.85 2.41.8.92 1.42 1.93 2 3.02.57 1.08 1.1 2.24 1.5 3.63.4 1.39.67 3.03.84 4.71.17 1.68.25 3.41.23 4.85-.02 1.44-.13 2.6-.33 4.1-.2 1.5-.48 3.35-.76 4.86-.28 1.51-.57 2.7-.98 3.84-.42 1.14-.97 2.24-1.53 3.22-.55.99-1.11 1.86-1.94 2.92-.83 1.06-1.95 2.31-3.01 3.26-1.06.95-2.08 1.62-3.14 2.13-1.06.51-2.18.87-2.96 1.12-.78.25-1.23.38-1.45.44l-.22.07.63-.03c.63-.03 1.9-.1 3.21-.3 1.31-.2 2.65-.53 3.98-1.05a18.65 18.65 0 003.82-2.07c1.19-.85 2.28-1.84 3.36-3.17 1.07-1.34 2.13-3.02 2.94-4.82.81-1.8 1.38-3.72 1.84-5.5.47-1.78.84-3.42 1.01-5.22.17-1.82.15-3.78.06-5.79z" fill="url(#paint2_linear)"/><path fill-rule="evenodd" clip-rule="evenodd" d="M47.15 59.55c.54-.11 1.09-.29 1.48-.54.39-.25.61-.57.72-.73.11-.16.11-.16-.07-.13s-.55.09-.97.09c-.42 0-.89-.05-1.21-.19-.32-.14-.5-.37-.59-.61-.09-.24-.09-.49-.01-.76s.25-.54.32-.78c.07-.23.05-.42-.11-.52-.16-.1-.45-.12-.74.02-.29.14-.57.44-1.02.82-.46.39-1.09.86-1.66 1.25-.57.39-1.08.69-1.69.95-.6.27-1.3.5-1.87.65-.57.15-1.03.22-1.47.27-.44.05-.87.09-1.21.07-.33-.01-.57-.07-.69-.1l-.12-.03.22.14c.22.14.66.42 1.27.63.61.21 1.38.34 2.12.4.75.06 1.47.04 2.15-.06.68-.1 1.32-.3 1.73-.5.41-.21.58-.42.7-.53.12-.11.17-.12.36-.04.18.08.5.26.91.32.4.07.91.02 1.45-.09z" fill="url(#paint3_linear)"/><path fill-rule="evenodd" clip-rule="evenodd" d="M26.45 16.47l.4.41-.07-.2c-.07-.2-.21-.59-.58-1.26-.38-.67-.99-1.62-2.1-2.59-1.11-.97-2.71-1.96-4.28-2.66-1.57-.71-3.1-1.14-4.71-1.45-1.6-.31-3.28-.49-4.57-.5-1.29-.01-2.2.16-2.65.25l-.45.1.56.09c.56.09 1.69.26 3.05.53 1.37.26 2.98.62 4.43 1.03 1.46.41 2.76.87 4.23 1.58 1.47.71 3.1 1.66 4.31 2.55 1.23.88 2.03 1.7 2.43 2.12z" fill="url(#paint4_linear)"/><path fill-rule="evenodd" clip-rule="evenodd" d="M13.38 15.28c.7.05 1.51.02 2.31-.07.8-.09 1.59-.24 2.35-.52.76-.27 1.49-.67 1.93-.94.44-.27.58-.41.66-.48l.09-.09c.01-.01.01-.01-.73.14-.73.14-2.2.43-3.74.73s-3.15.61-3.96.77l-.81.16.3.07c.3.05.89.18 1.6.23z" fill="url(#paint5_linear)"/><path fill-rule="evenodd" clip-rule="evenodd" d="M6.63 12.41c.44.07 1.06.14 1.81.12.75-.02 1.64-.12 2.4-.29.76-.16 1.4-.39 2.05-.71.65-.32 1.32-.74 1.66-.95l.34-.21-.2.05c-.2.05-.59.14-1.41.33s-2.05.47-3.4.73c-1.34.25-2.79.48-3.52.59l-.72.11.14.04c.14.03.41.11.85.19z" fill="url(#paint6_linear)"/><path fill-rule="evenodd" clip-rule="evenodd" d="M3.83 8.79c.57.21 1.49.42 2.35.47.86.06 1.66-.03 2.06-.08l.4-.05v-.02c0-.02-.01-.05-.32-.11-.31-.05-.93-.14-1.53-.22-.6-.08-1.19-.15-1.84-.25-.66-.11-1.37-.26-1.73-.33l-.35-.07.1.11c.1.11.3.33.86.55z" fill="url(#paint7_linear)"/><path fill-rule="evenodd" clip-rule="evenodd" d="M6.9 7.49c-.27-.26-.8-.78-1.66-1.5-.86-.72-2.05-1.64-2.65-2.11L2 3.42l.09.25c.09.26.27.77.92 1.43.65.66 1.77 1.47 2.55 1.95.79.48 1.24.63 1.45.69.22.07.19.04.17.03l-.28-.28z" fill="url(#paint8_linear)"/><path fill-rule="evenodd" clip-rule="evenodd" d="M7.7 5.95c.48.23 1.4.65 2.1.98.69.32 1.16.53 1.39.64l.23.11-.32-.24c-.32-.24-.96-.71-1.66-1.06-.7-.35-1.45-.58-1.84-.68-.4-.1-.42-.07-.42-.04.01.03.04.06.52.29z" fill="url(#paint9_linear)"/><path fill-rule="evenodd" clip-rule="evenodd" d="M17.81 8.76l.18.08-.15-.17c-.15-.17-.46-.5-.88-.77-.43-.27-.97-.47-1.25-.57l-.27-.1.24.18c.24.18.72.55 1.15.82.43.28.8.45.98.53z" fill="url(#paint10_linear)"/><path fill-rule="evenodd" clip-rule="evenodd" d="M24.05 12.08c.22.24.21.2.21.19v-.02l-.1-.21c-.1-.21-.3-.62-.61-1.04-.32-.43-.75-.87-.97-1.09l-.22-.22.1.19c.1.19.29.57.61 1.01.32.45.76.95.98 1.19z" fill="url(#paint11_linear)"/><path fill-rule="evenodd" clip-rule="evenodd" d="M16.85 17.88c1.61-.18 3.25-.53 4.52-.9 1.27-.37 2.18-.76 2.63-.96l.45-.2-.44.1c-.44.1-1.31.3-2.35.46-1.04.16-2.24.28-3.43.24-1.19-.04-2.38-.24-3.42-.44s-1.94-.41-2.9-.68c-.96-.26-1.99-.58-3.06-1.03-1.07-.45-2.19-1.04-3.17-1.65-.98-.61-1.81-1.24-2.48-2.04-.67-.8-1.17-1.77-1.48-2.64-.3-.87-.43-1.64-.43-2.44 0-.81.12-1.65.18-2.07l.06-.42.63.27c.63.27 1.89.8 3.04 1.19 1.15.39 2.2.64 3.47.95 1.27.31 2.77.68 4.12.95 1.35.27 2.56.43 3.72.66 1.16.23 2.27.54 3.32.91 1.05.38 2.03.83 2.9 1.36.86.53 1.61 1.14 2.22 1.83.61.68 1.08 1.43 1.32 1.81.24.38.24.38.23.36 0-.02-.01-.05-.04-.23-.04-.18-.11-.52-.29-1s-.46-1.1-.95-1.78c-.49-.68-1.2-1.43-2.1-2.11-.9-.68-1.99-1.31-3.53-1.85-1.53-.54-3.5-1-5.33-1.33-1.83-.34-3.5-.55-4.92-.78-1.42-.23-2.58-.46-3.56-.77S4 2.96 3.28 2.58c-.71-.38-1.34-.76-1.82-1.21C.98.92.65.4.48.16.31-.08.28-.05.22.26s-.16.89-.2 1.72C-.02 2.81 0 3.89.1 5.12c.1 1.23.28 2.63.66 3.9s.97 2.42 1.77 3.49c.8 1.07 1.82 2.07 3.44 2.99 1.62.92 3.85 1.76 5.76 2.17 1.92.41 3.51.39 5.12.21z" fill="url(#paint12_linear)"/><defs><linearGradient id="paint0_linear" x1="6.117" y1="40.372" x2="43.069" y2="40.372" gradientUnits="userSpaceOnUse"><stop stop-color="#E94E1B"/><stop offset=".452" stop-color="#F9B233"/><stop offset="1" stop-color="#E6332A"/></linearGradient><linearGradient id="paint1_linear" x1="26.77" y1="10.923" x2="32.439" y2="10.923" gradientUnits="userSpaceOnUse"><stop stop-color="#E94E1B"/><stop offset=".452" stop-color="#F9B233"/><stop offset="1" stop-color="#E6332A"/></linearGradient><linearGradient id="paint2_linear" x1="26.39" y1="35.95" x2="66.108" y2="35.95" gradientUnits="userSpaceOnUse"><stop stop-color="#E94E1B"/><stop offset=".452" stop-color="#F9B233"/><stop offset="1" stop-color="#E6332A"/></linearGradient><linearGradient id="paint3_linear" x1="36.22" y1="57.895" x2="49.419" y2="57.895" gradientUnits="userSpaceOnUse"><stop stop-color="#E94E1B"/><stop offset=".452" stop-color="#F9B233"/><stop offset="1" stop-color="#E6332A"/></linearGradient><linearGradient id="paint4_linear" x1="7.441" y1="12.556" x2="26.851" y2="12.556" gradientUnits="userSpaceOnUse"><stop stop-color="#E94E1B"/><stop offset=".452" stop-color="#F9B233"/><stop offset="1" stop-color="#E6332A"/></linearGradient><linearGradient id="paint5_linear" x1="11.481" y1="14.239" x2="20.719" y2="14.239" gradientUnits="userSpaceOnUse"><stop stop-color="#E94E1B"/><stop offset=".452" stop-color="#F9B233"/><stop offset="1" stop-color="#E6332A"/></linearGradient><linearGradient id="paint6_linear" x1="5.644" y1="11.447" x2="14.887" y2="11.447" gradientUnits="userSpaceOnUse"><stop stop-color="#E94E1B"/><stop offset=".452" stop-color="#F9B233"/><stop offset="1" stop-color="#E6332A"/></linearGradient><linearGradient id="paint7_linear" x1="2.865" y1="8.705" x2="8.645" y2="8.705" gradientUnits="userSpaceOnUse"><stop stop-color="#E94E1B"/><stop offset=".452" stop-color="#F9B233"/><stop offset="1" stop-color="#E6332A"/></linearGradient><linearGradient id="paint8_linear" x1="1.999" y1="5.603" x2="7.191" y2="5.603" gradientUnits="userSpaceOnUse"><stop stop-color="#E94E1B"/><stop offset=".452" stop-color="#F9B233"/><stop offset="1" stop-color="#E6332A"/></linearGradient><linearGradient id="paint9_linear" x1="7.183" y1="6.651" x2="11.411" y2="6.651" gradientUnits="userSpaceOnUse"><stop stop-color="#E94E1B"/><stop offset=".452" stop-color="#F9B233"/><stop offset="1" stop-color="#E6332A"/></linearGradient><linearGradient id="paint10_linear" x1="15.441" y1="8.043" x2="17.994" y2="8.043" gradientUnits="userSpaceOnUse"><stop stop-color="#E94E1B"/><stop offset=".452" stop-color="#F9B233"/><stop offset="1" stop-color="#E6332A"/></linearGradient><linearGradient id="paint11_linear" x1="22.362" y1="10.983" x2="24.258" y2="10.983" gradientUnits="userSpaceOnUse"><stop stop-color="#E94E1B"/><stop offset=".452" stop-color="#F9B233"/><stop offset="1" stop-color="#E6332A"/></linearGradient><linearGradient id="paint12_linear" x1="0" y1="9.002" x2="26.503" y2="9.002" gradientUnits="userSpaceOnUse"><stop stop-color="#E94E1B"/><stop offset=".452" stop-color="#F9B233"/><stop offset="1" stop-color="#E6332A"/></linearGradient></defs></svg>