<svg width="219" height="132" fill="none" xmlns="http://www.w3.org/2000/svg"><circle r="2" transform="matrix(-1 0 0 1 195 3)" fill="url(#paint0_linear)" stroke="url(#paint1_linear)" stroke-width="2"/><circle r="2" transform="matrix(-1 0 0 1 195 75)" fill="url(#paint2_linear)" stroke="url(#paint3_linear)" stroke-width="2"/><circle r="2" transform="matrix(-1 0 0 1 153 3)" fill="url(#paint4_linear)" stroke="url(#paint5_linear)" stroke-width="2"/><circle r="2" transform="matrix(-1 0 0 1 153 75)" fill="url(#paint6_linear)" stroke="url(#paint7_linear)" stroke-width="2"/><circle r="2" transform="matrix(-1 0 0 1 111 3)" fill="url(#paint8_linear)" stroke="url(#paint9_linear)" stroke-width="2"/><circle r="2" transform="matrix(-1 0 0 1 111 75)" fill="url(#paint10_linear)" stroke="url(#paint11_linear)" stroke-width="2"/><circle r="2" transform="matrix(-1 0 0 1 69 3)" fill="url(#paint12_linear)" stroke="url(#paint13_linear)" stroke-width="2"/><circle r="2" transform="matrix(-1 0 0 1 69 75)" fill="url(#paint14_linear)" stroke="url(#paint15_linear)" stroke-width="2"/><circle r="2" transform="matrix(-1 0 0 1 27 3)" fill="url(#paint16_linear)" stroke="url(#paint17_linear)" stroke-width="2"/><circle r="2" transform="matrix(-1 0 0 1 27 75)" fill="url(#paint18_linear)" stroke="url(#paint19_linear)" stroke-width="2"/><circle r="2" transform="matrix(-1 0 0 1 216 39)" fill="url(#paint20_linear)" stroke="url(#paint21_linear)" stroke-width="2"/><circle r="2" transform="matrix(-1 0 0 1 216 111)" fill="url(#paint22_linear)" stroke="url(#paint23_linear)" stroke-width="2"/><circle r="2" transform="matrix(-1 0 0 1 174 39)" fill="url(#paint24_linear)" stroke="url(#paint25_linear)" stroke-width="2"/><circle r="2" transform="matrix(-1 0 0 1 174 111)" fill="url(#paint26_linear)" stroke="url(#paint27_linear)" stroke-width="2"/><circle r="2" transform="matrix(-1 0 0 1 132 39)" fill="url(#paint28_linear)" stroke="url(#paint29_linear)" stroke-width="2"/><circle r="2" transform="matrix(-1 0 0 1 132 111)" fill="url(#paint30_linear)" stroke="url(#paint31_linear)" stroke-width="2"/><circle r="2" transform="matrix(-1 0 0 1 90 39)" fill="url(#paint32_linear)" stroke="url(#paint33_linear)" stroke-width="2"/><circle r="2" transform="matrix(-1 0 0 1 90 111)" fill="url(#paint34_linear)" stroke="url(#paint35_linear)" stroke-width="2"/><circle r="2" transform="matrix(-1 0 0 1 48 39)" fill="url(#paint36_linear)" stroke="url(#paint37_linear)" stroke-width="2"/><circle r="2" transform="matrix(-1 0 0 1 48 111)" fill="url(#paint38_linear)" stroke="url(#paint39_linear)" stroke-width="2"/><circle r="2" transform="matrix(-1 0 0 1 6 39)" fill="url(#paint40_linear)" stroke="url(#paint41_linear)" stroke-width="2"/><circle r="2" transform="matrix(-1 0 0 1 6 111)" fill="url(#paint42_linear)" stroke="url(#paint43_linear)" stroke-width="2"/><defs><linearGradient id="paint0_linear" x1="0" y1="3" x2="6.187" y2="3" gradientUnits="userSpaceOnUse"><stop stop-color="#1F8DF2"/><stop offset=".538" stop-color="#1B8EE9"/><stop offset="1" stop-color="#5FB8FF"/></linearGradient><linearGradient id="paint1_linear" x1="0" y1="3" x2="6.187" y2="3" gradientUnits="userSpaceOnUse"><stop stop-color="#1F8DF2"/><stop offset=".538" stop-color="#1B8EE9"/><stop offset="1" stop-color="#5FB8FF"/></linearGradient><linearGradient id="paint2_linear" x1="0" y1="3" x2="6.187" y2="3" gradientUnits="userSpaceOnUse"><stop stop-color="#1F8DF2"/><stop offset=".538" stop-color="#1B8EE9"/><stop offset="1" stop-color="#5FB8FF"/></linearGradient><linearGradient id="paint3_linear" x1="0" y1="3" x2="6.187" y2="3" gradientUnits="userSpaceOnUse"><stop stop-color="#1F8DF2"/><stop offset=".538" stop-color="#1B8EE9"/><stop offset="1" stop-color="#5FB8FF"/></linearGradient><linearGradient id="paint4_linear" x1="0" y1="3" x2="6.187" y2="3" gradientUnits="userSpaceOnUse"><stop stop-color="#1F8DF2"/><stop offset=".538" stop-color="#1B8EE9"/><stop offset="1" stop-color="#5FB8FF"/></linearGradient><linearGradient id="paint5_linear" x1="0" y1="3" x2="6.187" y2="3" gradientUnits="userSpaceOnUse"><stop stop-color="#1F8DF2"/><stop offset=".538" stop-color="#1B8EE9"/><stop offset="1" stop-color="#5FB8FF"/></linearGradient><linearGradient id="paint6_linear" x1="0" y1="3" x2="6.187" y2="3" gradientUnits="userSpaceOnUse"><stop stop-color="#1F8DF2"/><stop offset=".538" stop-color="#1B8EE9"/><stop offset="1" stop-color="#5FB8FF"/></linearGradient><linearGradient id="paint7_linear" x1="0" y1="3" x2="6.187" y2="3" gradientUnits="userSpaceOnUse"><stop stop-color="#1F8DF2"/><stop offset=".538" stop-color="#1B8EE9"/><stop offset="1" stop-color="#5FB8FF"/></linearGradient><linearGradient id="paint8_linear" x1="0" y1="3" x2="6.187" y2="3" gradientUnits="userSpaceOnUse"><stop stop-color="#1F8DF2"/><stop offset=".538" stop-color="#1B8EE9"/><stop offset="1" stop-color="#5FB8FF"/></linearGradient><linearGradient id="paint9_linear" x1="0" y1="3" x2="6.187" y2="3" gradientUnits="userSpaceOnUse"><stop stop-color="#1F8DF2"/><stop offset=".538" stop-color="#1B8EE9"/><stop offset="1" stop-color="#5FB8FF"/></linearGradient><linearGradient id="paint10_linear" x1="0" y1="3" x2="6.187" y2="3" gradientUnits="userSpaceOnUse"><stop stop-color="#1F8DF2"/><stop offset=".538" stop-color="#1B8EE9"/><stop offset="1" stop-color="#5FB8FF"/></linearGradient><linearGradient id="paint11_linear" x1="0" y1="3" x2="6.187" y2="3" gradientUnits="userSpaceOnUse"><stop stop-color="#1F8DF2"/><stop offset=".538" stop-color="#1B8EE9"/><stop offset="1" stop-color="#5FB8FF"/></linearGradient><linearGradient id="paint12_linear" x1="0" y1="3" x2="6.187" y2="3" gradientUnits="userSpaceOnUse"><stop stop-color="#1F8DF2"/><stop offset=".538" stop-color="#1B8EE9"/><stop offset="1" stop-color="#5FB8FF"/></linearGradient><linearGradient id="paint13_linear" x1="0" y1="3" x2="6.187" y2="3" gradientUnits="userSpaceOnUse"><stop stop-color="#1F8DF2"/><stop offset=".538" stop-color="#1B8EE9"/><stop offset="1" stop-color="#5FB8FF"/></linearGradient><linearGradient id="paint14_linear" x1="0" y1="3" x2="6.187" y2="3" gradientUnits="userSpaceOnUse"><stop stop-color="#1F8DF2"/><stop offset=".538" stop-color="#1B8EE9"/><stop offset="1" stop-color="#5FB8FF"/></linearGradient><linearGradient id="paint15_linear" x1="0" y1="3" x2="6.187" y2="3" gradientUnits="userSpaceOnUse"><stop stop-color="#1F8DF2"/><stop offset=".538" stop-color="#1B8EE9"/><stop offset="1" stop-color="#5FB8FF"/></linearGradient><linearGradient id="paint16_linear" x1="0" y1="3" x2="6.187" y2="3" gradientUnits="userSpaceOnUse"><stop stop-color="#1F8DF2"/><stop offset=".538" stop-color="#1B8EE9"/><stop offset="1" stop-color="#5FB8FF"/></linearGradient><linearGradient id="paint17_linear" x1="0" y1="3" x2="6.187" y2="3" gradientUnits="userSpaceOnUse"><stop stop-color="#1F8DF2"/><stop offset=".538" stop-color="#1B8EE9"/><stop offset="1" stop-color="#5FB8FF"/></linearGradient><linearGradient id="paint18_linear" x1="0" y1="3" x2="6.187" y2="3" gradientUnits="userSpaceOnUse"><stop stop-color="#1F8DF2"/><stop offset=".538" stop-color="#1B8EE9"/><stop offset="1" stop-color="#5FB8FF"/></linearGradient><linearGradient id="paint19_linear" x1="0" y1="3" x2="6.187" y2="3" gradientUnits="userSpaceOnUse"><stop stop-color="#1F8DF2"/><stop offset=".538" stop-color="#1B8EE9"/><stop offset="1" stop-color="#5FB8FF"/></linearGradient><linearGradient id="paint20_linear" x1="0" y1="3" x2="6.187" y2="3" gradientUnits="userSpaceOnUse"><stop stop-color="#1F8DF2"/><stop offset=".538" stop-color="#1B8EE9"/><stop offset="1" stop-color="#5FB8FF"/></linearGradient><linearGradient id="paint21_linear" x1="0" y1="3" x2="6.187" y2="3" gradientUnits="userSpaceOnUse"><stop stop-color="#1F8DF2"/><stop offset=".538" stop-color="#1B8EE9"/><stop offset="1" stop-color="#5FB8FF"/></linearGradient><linearGradient id="paint22_linear" x1="0" y1="3" x2="6.187" y2="3" gradientUnits="userSpaceOnUse"><stop stop-color="#1F8DF2"/><stop offset=".538" stop-color="#1B8EE9"/><stop offset="1" stop-color="#5FB8FF"/></linearGradient><linearGradient id="paint23_linear" x1="0" y1="3" x2="6.187" y2="3" gradientUnits="userSpaceOnUse"><stop stop-color="#1F8DF2"/><stop offset=".538" stop-color="#1B8EE9"/><stop offset="1" stop-color="#5FB8FF"/></linearGradient><linearGradient id="paint24_linear" x1="0" y1="3" x2="6.187" y2="3" gradientUnits="userSpaceOnUse"><stop stop-color="#1F8DF2"/><stop offset=".538" stop-color="#1B8EE9"/><stop offset="1" stop-color="#5FB8FF"/></linearGradient><linearGradient id="paint25_linear" x1="0" y1="3" x2="6.187" y2="3" gradientUnits="userSpaceOnUse"><stop stop-color="#1F8DF2"/><stop offset=".538" stop-color="#1B8EE9"/><stop offset="1" stop-color="#5FB8FF"/></linearGradient><linearGradient id="paint26_linear" x1="0" y1="3" x2="6.187" y2="3" gradientUnits="userSpaceOnUse"><stop stop-color="#1F8DF2"/><stop offset=".538" stop-color="#1B8EE9"/><stop offset="1" stop-color="#5FB8FF"/></linearGradient><linearGradient id="paint27_linear" x1="0" y1="3" x2="6.187" y2="3" gradientUnits="userSpaceOnUse"><stop stop-color="#1F8DF2"/><stop offset=".538" stop-color="#1B8EE9"/><stop offset="1" stop-color="#5FB8FF"/></linearGradient><linearGradient id="paint28_linear" x1="0" y1="3" x2="6.187" y2="3" gradientUnits="userSpaceOnUse"><stop stop-color="#1F8DF2"/><stop offset=".538" stop-color="#1B8EE9"/><stop offset="1" stop-color="#5FB8FF"/></linearGradient><linearGradient id="paint29_linear" x1="0" y1="3" x2="6.187" y2="3" gradientUnits="userSpaceOnUse"><stop stop-color="#1F8DF2"/><stop offset=".538" stop-color="#1B8EE9"/><stop offset="1" stop-color="#5FB8FF"/></linearGradient><linearGradient id="paint30_linear" x1="0" y1="3" x2="6.187" y2="3" gradientUnits="userSpaceOnUse"><stop stop-color="#1F8DF2"/><stop offset=".538" stop-color="#1B8EE9"/><stop offset="1" stop-color="#5FB8FF"/></linearGradient><linearGradient id="paint31_linear" x1="0" y1="3" x2="6.187" y2="3" gradientUnits="userSpaceOnUse"><stop stop-color="#1F8DF2"/><stop offset=".538" stop-color="#1B8EE9"/><stop offset="1" stop-color="#5FB8FF"/></linearGradient><linearGradient id="paint32_linear" x1="0" y1="3" x2="6.187" y2="3" gradientUnits="userSpaceOnUse"><stop stop-color="#1F8DF2"/><stop offset=".538" stop-color="#1B8EE9"/><stop offset="1" stop-color="#5FB8FF"/></linearGradient><linearGradient id="paint33_linear" x1="0" y1="3" x2="6.187" y2="3" gradientUnits="userSpaceOnUse"><stop stop-color="#1F8DF2"/><stop offset=".538" stop-color="#1B8EE9"/><stop offset="1" stop-color="#5FB8FF"/></linearGradient><linearGradient id="paint34_linear" x1="0" y1="3" x2="6.187" y2="3" gradientUnits="userSpaceOnUse"><stop stop-color="#1F8DF2"/><stop offset=".538" stop-color="#1B8EE9"/><stop offset="1" stop-color="#5FB8FF"/></linearGradient><linearGradient id="paint35_linear" x1="0" y1="3" x2="6.187" y2="3" gradientUnits="userSpaceOnUse"><stop stop-color="#1F8DF2"/><stop offset=".538" stop-color="#1B8EE9"/><stop offset="1" stop-color="#5FB8FF"/></linearGradient><linearGradient id="paint36_linear" x1="0" y1="3" x2="6.187" y2="3" gradientUnits="userSpaceOnUse"><stop stop-color="#1F8DF2"/><stop offset=".538" stop-color="#1B8EE9"/><stop offset="1" stop-color="#5FB8FF"/></linearGradient><linearGradient id="paint37_linear" x1="0" y1="3" x2="6.187" y2="3" gradientUnits="userSpaceOnUse"><stop stop-color="#1F8DF2"/><stop offset=".538" stop-color="#1B8EE9"/><stop offset="1" stop-color="#5FB8FF"/></linearGradient><linearGradient id="paint38_linear" x1="0" y1="3" x2="6.187" y2="3" gradientUnits="userSpaceOnUse"><stop stop-color="#1F8DF2"/><stop offset=".538" stop-color="#1B8EE9"/><stop offset="1" stop-color="#5FB8FF"/></linearGradient><linearGradient id="paint39_linear" x1="0" y1="3" x2="6.187" y2="3" gradientUnits="userSpaceOnUse"><stop stop-color="#1F8DF2"/><stop offset=".538" stop-color="#1B8EE9"/><stop offset="1" stop-color="#5FB8FF"/></linearGradient><linearGradient id="paint40_linear" x1="0" y1="3" x2="6.187" y2="3" gradientUnits="userSpaceOnUse"><stop stop-color="#1F8DF2"/><stop offset=".538" stop-color="#1B8EE9"/><stop offset="1" stop-color="#5FB8FF"/></linearGradient><linearGradient id="paint41_linear" x1="0" y1="3" x2="6.187" y2="3" gradientUnits="userSpaceOnUse"><stop stop-color="#1F8DF2"/><stop offset=".538" stop-color="#1B8EE9"/><stop offset="1" stop-color="#5FB8FF"/></linearGradient><linearGradient id="paint42_linear" x1="0" y1="3" x2="6.187" y2="3" gradientUnits="userSpaceOnUse"><stop stop-color="#1F8DF2"/><stop offset=".538" stop-color="#1B8EE9"/><stop offset="1" stop-color="#5FB8FF"/></linearGradient><linearGradient id="paint43_linear" x1="0" y1="3" x2="6.187" y2="3" gradientUnits="userSpaceOnUse"><stop stop-color="#1F8DF2"/><stop offset=".538" stop-color="#1B8EE9"/><stop offset="1" stop-color="#5FB8FF"/></linearGradient></defs></svg>