<svg width="75" height="21" viewBox="0 0 75 21" fill="none" xmlns="http://www.w3.org/2000/svg">
<path d="M8.45996 9.48035L9.29996 9.36035L8.87996 20.7604L8.63996 20.5804L8.45996 9.54035V9.48035Z" fill="#791915"/>
<path d="M4.3202 1.14062C4.3202 1.20063 3.84019 2.64062 3.84019 2.64062L2.88019 4.86062L1.6802 7.20062L1.2002 7.38062L2.88019 3.30062L4.2602 1.26062L4.3202 1.14062Z" fill="#791915"/>
<path d="M2.88172 8.52109L10.9817 4.38109L8.70172 0.121094L4.26172 1.14109L2.76172 8.58109L2.88172 8.52109Z" fill="#A11D21"/>
<path d="M8.82007 9.42039V20.8204L5.16007 17.7004L2.82007 8.40039H2.88007L7.14007 9.06039L8.82007 9.42039Z" fill="#791915"/>
<path d="M17.5183 2.28027L16.7383 3.84027L17.6383 6.06027L17.9383 6.72027L17.8783 6.66027L17.5183 2.28027Z" fill="#B62325"/>
<path d="M13.1401 0.121094L13.2601 9.12109L15.3601 6.90109L17.5201 2.34109L13.1401 0.121094Z" fill="#DD2A26"/>
<path d="M1.5 15.7203L2.94 8.28027L5.22 17.7603L1.5 15.7203Z" fill="#65180C"/>
<path d="M8.82007 20.8206L13.2601 8.70062L13.3201 8.64062L15.4201 17.2806H15.3601L8.82007 20.8206Z" fill="#791915"/>
<path d="M2.88 8.40039L2.76 9.12039L2.64 9.90039L1.5 15.7204L1.56 15.5404L2.4 11.4604L2.88 8.46039V8.40039Z" fill="#65180C"/>
<path d="M4.26018 1.14062L1.50018 15.7206L0.180176 9.78062L4.26018 1.14062Z" fill="#791915"/>
<path d="M10.8601 4.32074L10.9801 4.26074L11.7601 5.82074V5.88074L11.7001 5.94074L10.8601 4.32074Z" fill="#B62325"/>
<path d="M13.0816 0.121094L11.1016 1.38109L13.2016 2.52109L13.1416 0.181093L13.0816 0.121094Z" fill="#B62325"/>
<path d="M13.14 2.40055L13.26 8.82055L10.92 4.38055L8.69995 0.0605469L13.14 2.40055Z" fill="#ED2F24"/>
<path d="M13.1399 0.0605469V2.40055L11.1599 1.32055L13.1399 0.0605469Z" fill="#B62325"/>
<path d="M15.3601 6.78055L13.2601 8.82055L13.1401 0.0605469L17.5201 2.28055L15.3601 6.78055Z" fill="#DD2A26"/>
<path d="M15.4201 6.7207L15.3601 6.7807L19.6201 11.1007L15.4201 6.7207Z" fill="#B62325"/>
<path d="M11.7601 5.87988L13.2601 8.81988L8.82007 20.8199V9.41988L11.7601 5.87988Z" fill="#8D1A1C"/>
<path d="M2.88 8.46094L5.22 17.7609L1.5 15.7209L2.88 8.46094Z" fill="#65180C"/>
<path d="M8.82007 9.47988V9.35988L11.7601 5.87988L13.3201 8.81988H13.2601L8.82007 9.47988Z" fill="#8D1A1C"/>
<path d="M2.87891 8.46031L10.9189 4.32031L11.7589 5.88031L8.81891 9.42031L2.87891 8.46031Z" fill="#B62325"/>
<path d="M15.4203 6.7207L19.6203 11.0407V11.1007L15.3003 6.9607L15.3603 6.7807L15.4203 6.7207Z" fill="#B62325"/>
<path d="M19.6201 11.1008L16.8001 3.84082L15.3601 6.78082L19.6201 11.1008Z" fill="#ED2F24"/>
<path d="M15.3617 6.78027L15.3017 6.84027L13.2617 8.82027L15.3617 17.3403L19.6217 11.1003L15.3617 6.78027Z" fill="#B62325"/>
<path d="M8.82007 20.8203L15.3601 17.3403L13.2601 8.82031L8.82007 20.8203Z" fill="#791915"/>
<path d="M17.5203 2.28027L17.9403 6.72027L16.8003 3.84027L17.5203 2.28027Z" fill="#B62325"/>
<path d="M1.02018 8.22062L0.180176 3.96062L4.26018 1.14062L1.02018 8.22062Z" fill="#8D1A1C"/>
<path d="M2.87891 8.46094L8.81891 9.42094V20.8209L5.21891 17.7609L2.87891 8.46094Z" fill="#791915"/>
<path d="M8.69891 0.0605469L4.25891 1.14055L2.87891 8.46055L10.9189 4.32055L8.69891 0.0605469Z" fill="#A11D21"/>
<path d="M28.4984 17.0405H27.4784V12.5405C27.4784 11.5805 26.6984 10.7405 25.6784 10.7405H24.4184V17.0405H23.3984V3.48047H25.7384C27.2984 3.48047 28.5584 4.74047 28.5584 6.30047V7.98047C28.5584 8.94047 28.0784 9.78047 27.3584 10.2605C28.0784 10.8005 28.5584 11.5805 28.5584 12.5405V17.0405H28.4984ZM25.6784 9.72047C26.6384 9.72047 27.4784 8.94047 27.4784 7.92047V6.24047C27.4784 5.28047 26.6984 4.44047 25.6784 4.44047H24.4184V9.66047H25.6784V9.72047Z" fill="white"/>
<path d="M31.3169 4.50047V9.72047H33.7769V10.8005H31.3169V16.0205H34.7969V17.0405H30.2969V3.48047H34.6169V4.50047H31.3169Z" fill="white"/>
<path d="M41.3997 14.2205C41.3997 15.7805 40.1397 17.0405 38.5797 17.0405H36.1797V3.48047H38.5797C40.1397 3.48047 41.3997 4.74047 41.3997 6.30047V14.2205ZM40.3797 6.30047C40.3797 5.34047 39.5997 4.50047 38.5797 4.50047H37.1997V15.9605H38.5797C39.5397 15.9605 40.3797 15.1805 40.3797 14.1605V6.30047Z" fill="white"/>
<path d="M43.557 8.46023C43.557 8.46023 42.957 7.74023 42.957 6.78023V5.88023C42.957 4.44023 44.097 3.24023 45.597 3.24023C47.037 3.24023 48.237 4.38023 48.237 5.88023V7.56023L47.217 7.68023V5.88023C47.217 5.04023 46.497 4.32023 45.657 4.32023C44.817 4.32023 44.097 5.04023 44.097 5.88023V6.78023C44.097 7.38023 44.457 7.80023 44.457 7.80023L47.637 11.5802C47.637 11.5802 48.237 12.3002 48.237 13.3202V14.6402C48.237 16.0802 47.097 17.2802 45.597 17.2802C44.157 17.2802 42.957 16.1402 42.957 14.6402V12.6602L43.977 12.5402V14.6402C43.977 15.4802 44.697 16.2002 45.537 16.2002C46.377 16.2002 47.097 15.4802 47.097 14.6402V13.3202C47.097 12.7202 46.737 12.3002 46.737 12.3002L43.557 8.46023Z" fill="white"/>
<path d="M54.1185 4.50047H52.1985V17.0405H51.1185V4.50047H49.1985V3.48047H53.9985V4.50047H54.1185Z" fill="white"/>
<path d="M55.3787 5.88023C55.3787 4.44023 56.5187 3.24023 58.0187 3.24023C59.4587 3.24023 60.6587 4.38023 60.6587 5.88023V14.6402C60.6587 16.0802 59.5187 17.2802 58.0187 17.2802C56.5787 17.2802 55.3787 16.1402 55.3787 14.6402V5.88023ZM56.4587 14.6402C56.4587 15.4802 57.1787 16.2002 58.0187 16.2002C58.8587 16.2002 59.5787 15.4802 59.5787 14.6402V5.88023C59.5787 5.04023 58.8587 4.32023 58.0187 4.32023C57.1787 4.32023 56.4587 5.04023 56.4587 5.88023V14.6402Z" fill="white"/>
<path d="M62.5195 3.48047H63.7795L66.9595 13.8005H67.0195V3.48047H68.0395V17.0405H67.0195L63.5995 6.18047V17.0405H62.5795V3.48047H62.5195Z" fill="white"/>
<path d="M71.1567 4.50047V9.72047H73.6167V10.8005H71.1567V16.0205H74.6367V17.0405H70.1367V3.48047H74.4567V4.50047H71.1567Z" fill="white"/>
</svg>
